<svg width="57" height="22" viewBox="0 0 57 22" fill="none" xmlns="http://www.w3.org/2000/svg">
<path d="M28.5 2.21733C14.2013 2.21733 2.61167 6.17 2.61167 11.0047C2.61167 15.8393 14.2013 19.7897 28.5 19.7897C42.7963 19.7897 54.386 15.8393 54.386 11.0047C54.386 6.16767 42.7963 2.21733 28.5 2.21733ZM15.2047 16.7773C13.674 16.789 12.3277 15.844 12.1713 14.2083C12.0825 13.356 12.3285 12.5026 12.8573 11.8283C13.3123 11.2357 14.0823 10.7433 14.7333 10.622C14.9433 10.5823 15.2303 10.608 15.3493 10.748C15.5337 10.965 15.48 11.2007 15.2957 11.294C14.7987 11.5483 14.199 11.9823 13.9027 12.5773C13.7669 12.8296 13.7026 13.1142 13.7166 13.4004C13.7305 13.6865 13.8223 13.9635 13.982 14.2013C14.5957 15.1277 16.3083 15.1533 17.8997 13.6763C18.294 13.3123 18.6463 12.967 19.0033 12.5563C19.7033 11.7537 19.9367 11.4597 20.87 10.167C20.8817 10.153 20.884 10.1343 20.8793 10.125C20.8723 10.1087 20.8583 10.1017 20.8327 10.1017C20.2097 10.118 19.666 10.3047 19.141 10.6967C18.9893 10.8087 18.77 10.7923 18.6743 10.6477C18.567 10.4843 18.644 10.2673 18.819 10.146C19.666 9.55567 20.5923 9.45067 21.5397 9.28967C21.5397 9.28967 21.605 9.29433 21.6587 9.21967C22.0483 8.72267 22.34 8.27467 22.7553 7.77067C23.1707 7.25733 23.712 6.79067 24.1227 6.436C24.6967 5.94133 25.0653 5.77567 25.4387 5.57267C25.539 5.52133 25.427 5.45833 25.3967 5.45833C23.306 5.06633 21.1337 4.55767 19.057 5.32767C17.6197 5.86433 16.9873 7.003 17.2907 7.766C17.5077 8.305 18.217 8.396 18.8843 8.06933C19.4647 7.78153 19.957 7.34315 20.31 6.8C20.513 6.48733 20.94 6.71133 20.709 7.255C20.1023 8.68067 18.9427 9.81466 17.5287 9.86367C16.3247 9.901 15.5477 9.01667 15.55 7.92467C15.5547 5.76867 17.9533 4.35 20.4733 4.14C23.509 3.888 26.3837 4.69767 29.3983 5.06167C31.706 5.34167 33.9203 5.34867 36.2397 4.81433C36.515 4.756 36.7063 4.931 36.69 5.20633C36.6667 5.60767 36.3563 5.99267 35.5933 6.41033C34.723 6.88633 33.813 7.031 32.8633 7.04033C30.5673 7.059 28.4277 6.163 26.2133 5.68233C26.218 5.778 26.2413 5.89467 26.1597 5.95533C24.9347 6.86067 23.8263 7.78 23.0843 9.068C23.0587 9.09833 23.0727 9.12633 23.1147 9.124C23.761 9.089 24.3397 9.07267 24.9417 9.026C25.0467 9.01667 25.0513 8.991 25.042 8.914C25.009 8.67543 25.0343 8.43243 25.1155 8.20572C25.1968 7.979 25.3317 7.77531 25.5087 7.612C25.91 7.255 26.4117 7.21533 26.7453 7.472C27.1187 7.766 27.0883 8.29567 26.8807 8.69233C26.7882 8.86652 26.6617 9.02033 26.5085 9.1446C26.3554 9.26887 26.1788 9.36105 25.9893 9.41567C25.9893 9.41567 25.9193 9.42967 25.9287 9.495C25.9427 9.59533 26.3953 9.84733 26.435 9.915C26.4747 9.978 26.4537 10.0783 26.386 10.153C26.3591 10.1858 26.3253 10.2122 26.2869 10.2304C26.2486 10.2485 26.2067 10.258 26.1643 10.258C26.0873 10.258 26.0407 10.23 25.9403 10.1763C25.7002 10.049 25.4864 9.87715 25.3103 9.67C25.2543 9.59767 25.224 9.59533 25.0793 9.60233C24.4283 9.642 23.4133 9.74 22.725 9.82633C22.5593 9.845 22.5337 9.87767 22.501 9.936C21.4043 11.7443 20.233 13.6927 18.9473 14.9993C17.566 16.3993 16.4203 16.768 15.2047 16.7773ZM44.95 7.99C44.7377 8.35867 40.6357 14.6027 40.3767 15.2467C40.295 15.452 40.2833 15.6083 40.3673 15.7227C40.582 16.012 41.0603 15.8417 41.359 15.634C42.248 15.0227 42.864 14.2807 43.5453 13.632C43.585 13.6017 43.6527 13.59 43.697 13.632C43.7973 13.7253 43.9443 13.8443 44.047 13.9517C44.0561 13.96 44.0635 13.9701 44.0687 13.9814C44.0739 13.9926 44.0768 14.0048 44.0772 14.0172C44.0776 14.0296 44.0756 14.0419 44.0712 14.0535C44.0668 14.0651 44.0602 14.0757 44.0517 14.0847C43.4283 14.8681 42.721 15.581 41.9423 16.2103C40.8457 17.0597 39.7513 17.2767 39.2077 16.733C39.0159 16.533 38.9004 16.2721 38.881 15.9957C38.8763 15.8627 38.8087 15.8557 38.7457 15.9163C38.097 16.558 36.9723 17.2673 35.9503 16.761C35.0963 16.341 34.898 15.319 35.0567 14.4603C35.059 14.4417 35.0427 14.3203 34.9377 14.3903C34.7222 14.547 34.4868 14.6741 34.2377 14.7683C33.9698 14.8907 33.6781 14.952 33.3837 14.948C33.1719 14.9504 32.9633 14.8971 32.7786 14.7935C32.5939 14.6899 32.4397 14.5396 32.3313 14.3577C32.1936 14.1094 32.1176 13.8318 32.1097 13.548C32.1073 13.5223 32.07 13.4733 32.0327 13.5363C31.3327 14.6027 30.6817 15.634 29.991 16.7167C29.9537 16.768 29.921 16.8007 29.851 16.803L28.4813 16.8053C28.3973 16.8053 28.3577 16.74 28.402 16.6583C28.6447 16.1917 29.9747 14.255 30.8753 12.6077C31.125 12.155 31.0737 11.9217 30.9197 11.8213C30.726 11.6953 30.341 11.8843 30.0167 12.1317C29.1323 12.8013 28.3903 13.8467 28.0123 14.3133C27.7907 14.5863 27.5807 14.9923 27.002 15.62C26.0897 16.6117 24.8787 17.181 23.7167 16.7867C23.4097 16.6827 23.133 16.5049 22.9109 16.2689C22.6887 16.0329 22.528 15.746 22.4427 15.4333C22.4077 15.312 22.34 15.2793 22.2723 15.3587C22.0857 15.592 21.7007 15.9397 21.3787 16.1567C21.3437 16.1823 21.2573 16.2337 21.1827 16.1963C21.0422 16.0599 20.9227 15.9034 20.828 15.732C20.8139 15.7009 20.81 15.6661 20.8167 15.6327C20.8234 15.5992 20.8404 15.5686 20.8653 15.5453C21.325 15.1417 21.577 14.913 21.7777 14.6587C21.927 14.472 22.0413 14.262 22.1743 13.9237C22.4543 13.219 23.0913 11.903 24.363 11.2217C24.8328 10.9557 25.3492 10.7822 25.8843 10.7107C26.1177 10.6873 26.3113 10.7153 26.3813 10.8973C26.407 10.9743 26.4723 11.1423 26.512 11.266C26.5377 11.3407 26.519 11.399 26.4303 11.4317C25.6837 11.7163 24.93 12.1573 24.412 12.855C23.8217 13.6437 23.663 14.5957 24.0573 15.1417C24.3443 15.5383 24.8087 15.6083 25.2567 15.466C25.9333 15.2513 26.512 14.619 26.8107 13.919C27.1327 13.1513 27.184 12.246 26.946 11.448C26.9087 11.3103 26.9437 11.2053 27.0323 11.1307C27.212 10.9837 27.4617 10.8693 27.534 10.832C27.6052 10.7939 27.6881 10.7835 27.7665 10.8029C27.8449 10.8223 27.9134 10.8701 27.9587 10.937C28.206 11.3033 28.339 11.819 28.3553 12.3533C28.3693 12.4677 28.416 12.47 28.472 12.4117C28.9153 11.9403 29.326 11.4363 29.7973 11.0583C30.229 10.7153 30.782 10.4353 31.2977 10.447C31.965 10.461 32.2963 10.9137 32.2753 11.721C32.273 11.8237 32.3453 11.8143 32.3943 11.7467C32.549 11.5144 32.7378 11.3067 32.9543 11.1307C33.4163 10.7503 33.8877 10.58 34.38 10.6127C34.9867 10.6593 35.472 11.2123 35.3717 11.8423C35.3475 12.0416 35.2751 12.232 35.1609 12.397C35.0467 12.5621 34.894 12.6968 34.716 12.7897C34.5664 12.8694 34.3962 12.9022 34.2277 12.8839C34.0592 12.8656 33.9 12.797 33.771 12.687C33.671 12.5924 33.5977 12.4732 33.5583 12.3413C33.519 12.2095 33.5151 12.0695 33.547 11.9357C33.5587 11.8773 33.484 11.8237 33.421 11.889C32.8283 12.505 32.784 13.303 33.1713 13.6623C33.5983 14.059 34.24 13.793 34.7067 13.4873C35.5607 12.9297 36.2233 12.1737 36.991 11.5903C37.4997 11.203 38.0807 10.8577 38.7317 10.7713C39.0893 10.7167 39.455 10.7586 39.791 10.8927C40.2577 11.0817 40.5517 11.476 40.589 11.8167C40.5983 11.917 40.673 11.9287 40.736 11.84C41.1047 11.266 43.081 8.30033 43.2443 7.99C43.291 7.89433 43.347 7.88033 43.452 7.88033H44.866C44.9477 7.88033 44.985 7.927 44.95 7.99ZM39.5367 13.1327C39.5222 13.1617 39.5197 13.1952 39.5297 13.226C39.5367 13.2727 39.5997 13.3193 39.6603 13.3427C39.6837 13.3497 39.6953 13.366 39.6697 13.4173C39.4947 13.7907 39.336 14.0053 39.1167 14.3297C38.9229 14.6163 38.6869 14.8719 38.4167 15.088C38.0013 15.431 37.4273 15.8043 36.9513 15.5547C36.7413 15.445 36.648 15.1487 36.655 14.9107C36.6643 14.2387 36.963 13.548 37.516 12.869C38.188 12.0407 38.9323 11.6113 39.42 11.847C39.924 12.0873 39.7653 12.673 39.5367 13.1303V13.1327ZM25.6557 8.74367C25.6381 8.59458 25.657 8.44347 25.7106 8.30327C25.7643 8.16307 25.8511 8.03796 25.9637 7.93867C26.0967 7.822 26.274 7.794 26.3837 7.88733C26.505 7.99233 26.4467 8.25367 26.323 8.43333C26.1887 8.63564 25.9856 8.78238 25.7513 8.84633C25.7093 8.85567 25.672 8.837 25.6557 8.74367ZM28.5 0.5C12.96 0.5 0.5 5.15967 0.5 11C0.5 16.8053 13.0603 21.5 28.5 21.5C43.9397 21.5 56.5 16.7867 56.5 11C56.5 5.21333 43.9397 0.5 28.5 0.5ZM28.5 20.5853C13.681 20.5853 1.66667 16.2967 1.66667 11.0047C1.66667 5.71033 13.6833 1.42167 28.5 1.42167C43.3167 1.42167 55.3287 5.71033 55.3287 11.0047C55.3287 16.2967 43.3167 20.5853 28.5 20.5853Z" fill="white"/>
</svg>
