<svg width="57" height="56" viewBox="0 0 57 56" fill="none" xmlns="http://www.w3.org/2000/svg">
<g clip-path="url(#clip0_1_845)">
<path d="M56.2713 16.03C55.5013 8.52135 50.508 6.94168 46.112 6.22068C43.9047 5.84735 39.9753 5.52068 37.4413 5.42735C35.234 5.28735 30.0493 5.21735 28.493 5.21735C26.96 5.21735 21.7497 5.28735 19.5447 5.42735C17.034 5.52068 13.0813 5.84735 10.874 6.22068C6.48033 6.96501 1.48 8.54001 0.714667 16.03C0.528 18.0763 0.481333 20.7503 0.504667 23.6087C0.574667 28.3477 0.971333 31.556 1.20467 33.789C1.368 35.322 1.99333 39.9023 2.80767 42.273C3.923 45.528 4.945 46.48 6.13033 47.4577C8.31667 49.224 11.896 49.7817 12.6403 49.9217C16.684 50.645 24.867 50.7803 28.4697 50.7803C32.0723 50.7803 40.253 50.6637 44.299 49.9217C45.0667 49.7817 48.646 49.245 50.809 47.4577C51.9943 46.48 53.0163 45.528 54.1317 42.273C54.9483 39.9023 55.597 35.322 55.7603 33.789C55.9937 31.556 56.4113 28.3477 56.458 23.6087C56.5513 20.7503 56.4813 18.0763 56.2713 16.03ZM53.5273 28.63C53.084 34.6267 52.552 38.206 51.7843 40.81C51.1077 43.0873 50.298 44.597 49.066 45.6913C47.043 47.5277 44.2523 47.922 42.626 48.1553C39.0933 48.692 33.1643 48.8553 28.493 48.8553C23.8217 48.8553 17.8927 48.6687 14.36 48.1553C12.7337 47.922 9.943 47.5277 7.92 45.6913C6.71133 44.597 5.876 43.064 5.225 40.8077C4.45733 38.2293 3.923 34.6243 3.482 28.6277C3.22533 25.0273 3.272 19.1683 3.66867 16.0277C4.27067 11.3353 6.597 8.98568 11.5717 8.10368C13.8957 7.68368 17.0317 7.38035 19.9857 7.24035C22.3563 7.07701 26.2857 7.00701 28.4697 7.03035C30.6537 7.00701 34.583 7.10035 36.9537 7.24035C39.9287 7.38035 43.0437 7.68368 45.3677 8.10368C50.3657 8.98568 52.692 11.3587 53.273 16.03C53.7373 19.1683 53.8073 25.0273 53.5297 28.63M41.3917 9.05335C40.113 14.798 39.602 17.4253 38.5543 21.5833C37.5557 25.585 36.7647 29.2787 35.4393 31.0683C34.0697 32.8813 32.2543 33.278 31.0223 33.4157C30.3713 33.4857 29.907 33.509 28.535 33.5323C27.6972 33.5482 26.8593 33.5093 26.0267 33.4157C24.7947 33.2757 22.9583 32.8813 21.612 31.0683C20.2633 29.2787 19.4957 25.585 18.497 21.5857C17.4003 17.4487 16.915 14.7957 15.613 9.05568C15.613 9.05568 14.3343 9.10235 13.7533 9.14901C12.9857 9.19568 12.3813 9.26568 11.7303 9.35901C12.5307 21.8937 13.345 35.21 14.3577 46.9957C16.208 47.2284 18.0697 47.36 19.9343 47.39C20.7043 44.436 21.6797 40.3433 22.7507 38.6003C23.6327 37.1817 25.0047 37.0207 25.7723 36.9273C26.981 36.764 28.003 36.7407 28.4907 36.7407C28.9573 36.7173 29.977 36.7407 31.209 36.9273C31.979 37.044 33.3487 37.184 34.2307 38.6003C35.3273 40.3433 36.277 44.4337 37.0447 47.3877C37.0447 47.3877 37.88 47.3643 39.763 47.271C40.7197 47.229 41.6763 47.1357 42.6237 46.991C43.6923 34.4143 44.4553 21.959 45.251 9.35901C44.5977 9.26568 43.9957 9.19568 43.228 9.14901C42.6913 9.10235 41.3917 9.05568 41.3917 9.05568V9.05335Z" fill="white"/>
</g>
<defs>
<clipPath id="clip0_1_845">
<rect width="56" height="56" fill="white" transform="translate(0.5)"/>
</clipPath>
</defs>
</svg>
