<svg width="43" height="48" viewBox="0 0 43 48" fill="none" xmlns="http://www.w3.org/2000/svg">
<path d="M37.8333 12.037C38.5479 12.4495 39.1403 13.0441 39.5502 13.7602C39.9601 14.4763 40.1728 15.2883 40.1667 16.1133V31.364C40.1665 32.1962 39.9438 33.0132 39.5216 33.7303C39.0994 34.4474 38.4932 35.0387 37.7657 35.4427L23.7657 44.3863C23.0726 44.7713 22.2928 44.9732 21.5 44.9732C20.7072 44.9732 19.9275 44.7713 19.2343 44.3863L5.23434 35.4427C4.50717 35.0388 3.90115 34.448 3.47901 33.7313C3.05687 33.0146 2.83396 32.1981 2.83334 31.3663V16.1133C2.83354 15.2812 3.05626 14.4642 3.47842 13.747C3.90058 13.0299 4.50683 12.4387 5.23434 12.0347L19.2343 3.70001C19.9479 3.3028 20.751 3.09433 21.5677 3.09433C22.3843 3.09433 23.1875 3.3028 23.901 3.70001L37.901 12.037H37.8333V12.037Z" stroke="white" stroke-width="4.66667" stroke-linecap="round" stroke-linejoin="round"/>
<path d="M16.8333 14.6667V33.3334H26.1667" stroke="white" stroke-width="4.66667" stroke-linecap="round" stroke-linejoin="round"/>
</svg>
