<svg width="57" height="48" viewBox="0 0 57 48" fill="none" xmlns="http://www.w3.org/2000/svg">
<path d="M48.5107 30.895L48.4873 30.9603C45.5777 39.4607 37.5557 45.161 28.5117 45.161C19.4677 45.161 11.4317 39.449 8.53367 30.951L8.51033 30.8833H2.15667V31.651L4.80033 31.9613C6.43367 32.148 6.77667 32.8713 7.22233 33.7813L7.33433 34.0053C11.1563 42.1603 19.477 47.4267 28.521 47.4267C37.5673 47.4267 45.888 42.1603 49.71 34.017L49.822 33.7953C50.2653 32.8853 50.6107 32.162 52.244 31.973L54.89 31.6603V30.895H48.5107ZM8.53367 17.028C11.4433 8.52767 19.4677 2.818 28.5117 2.818C37.5557 2.818 45.5893 8.52767 48.4897 17.028L48.513 17.0933H54.8783V16.328L52.2323 16.0177C50.599 15.8287 50.256 15.1077 49.8103 14.1953L49.7007 13.9713C45.8787 5.83967 37.5533 0.573334 28.5117 0.573334C19.456 0.573334 11.1447 5.83967 7.32267 13.9947L7.21067 14.2163C6.76733 15.1263 6.422 15.8497 4.78867 16.0387L2.145 16.349V17.1167H8.501L8.53367 17.028ZM40.8783 20.7287L36.8113 27.2503H38.566L39.2893 26.0837H44.033L44.7563 27.2503H46.4993L42.4323 20.7287H40.8783ZM43.2887 24.8493H40.0337L41.667 22.2267L43.2887 24.8493ZM49.8453 22.362L54.6777 27.2503H56.5V20.7287H55.0673V25.5937L50.256 20.7287H48.401V27.2503H49.8453V22.362ZM0.5 27.2503H1.94433V22.362L6.78833 27.2503H8.61067V20.7287H7.16633V25.5937L2.355 20.7287H0.5V27.2503ZM11.8003 20.7287H13.2447V27.2503H11.798L11.8003 20.7287ZM22.2677 25.8713C22.221 25.883 22.0437 25.883 21.9783 25.883H16.2337V27.2177H22.067C22.1113 27.2177 22.4567 27.2177 22.522 27.206C23.712 27.094 24.2557 26.1047 24.2557 25.239C24.2557 24.35 23.6887 23.3957 22.6107 23.2953C22.4007 23.272 22.2233 23.272 22.144 23.272H18.3337C18.1921 23.2766 18.0505 23.2656 17.9113 23.2393C17.6103 23.16 17.5007 22.894 17.5007 22.6723C17.5007 22.4717 17.6103 22.2057 17.9207 22.117C18.0525 22.0891 18.1874 22.0781 18.322 22.0843H23.8217V20.773H18.2333C18 20.773 17.8227 20.7823 17.678 20.8057C17.2228 20.8617 16.8047 21.085 16.505 21.4322C16.2053 21.7793 16.0454 22.2255 16.0563 22.684C16.0563 23.4843 16.5557 24.4177 17.6547 24.574C17.8553 24.595 18.133 24.595 18.2567 24.595H21.9667C22.0343 24.595 22.2 24.595 22.2327 24.6067C22.655 24.6603 22.7997 24.973 22.7997 25.2507C22.8032 25.4015 22.7509 25.5484 22.6527 25.663C22.5544 25.7776 22.4173 25.8518 22.2677 25.8713ZM33.134 25.8713C33.0873 25.883 32.91 25.883 32.833 25.883H27.1V27.2177H32.9333C32.9777 27.2177 33.323 27.2177 33.3883 27.206C34.5783 27.094 35.122 26.1047 35.122 25.239C35.122 24.35 34.555 23.3957 33.477 23.2953C33.267 23.272 33.0897 23.272 33.0103 23.272H29.2C29.0585 23.2766 28.9168 23.2656 28.7777 23.2393C28.4767 23.16 28.367 22.894 28.367 22.6723C28.367 22.4717 28.4767 22.2057 28.787 22.117C28.9188 22.0891 29.0537 22.0781 29.1883 22.0843H34.688V20.773H29.0997C28.8663 20.773 28.689 20.7823 28.5443 20.8057C28.0891 20.8617 27.671 21.085 27.3713 21.4322C27.0716 21.7793 26.9117 22.2255 26.9227 22.684C26.9227 23.4843 27.422 24.4177 28.5233 24.574C28.7217 24.595 28.9993 24.595 29.123 24.595H32.833C32.9007 24.595 33.0663 24.595 33.099 24.6067C33.5213 24.6603 33.666 24.973 33.666 25.2507C33.667 25.4009 33.6138 25.5464 33.516 25.6605C33.4183 25.7745 33.2826 25.8494 33.134 25.8713Z" fill="white"/>
</svg>
