<svg width="45" height="56" viewBox="0 0 45 56" fill="none" xmlns="http://www.w3.org/2000/svg">
<path d="M22.4347 0C20.8443 0.00751657 19.2548 0.0783504 17.67 0.212333C14.3297 0.488769 11.0158 1.02314 7.758 1.81067C5.39674 2.40743 3.07775 3.16043 0.81633 4.06467L0.676331 4.116C0.676331 4.116 0.951664 21.0163 1.16633 29.3883C1.22163 31.8532 1.66982 34.2934 2.494 36.617C3.44779 39.2606 4.71862 41.7787 6.27866 44.1163C7.91079 46.5303 9.88522 48.6942 12.14 50.54C13.0214 51.2793 13.9505 51.9598 14.9213 52.577C16.4439 53.4969 18.0335 54.3011 19.6767 54.9827C20.2203 55.2113 20.694 55.4307 21.1233 55.5777C21.5722 55.7492 22.0321 55.8903 22.5 56C22.9679 55.8896 23.4278 55.7477 23.8767 55.5753C24.3013 55.4283 24.7797 55.2113 25.3233 54.9803C26.9657 54.2986 28.5545 53.4944 30.0763 52.5747C31.0487 51.9575 31.9794 51.277 32.8623 50.5377C35.1162 48.6925 37.0898 46.5294 38.7213 44.1163C40.2816 41.7788 41.5524 39.2607 42.506 36.617C43.331 34.2935 43.7799 31.8533 43.836 29.3883C44.0483 21.0163 44.326 4.12533 44.326 4.12533C44.2827 4.10293 44.2383 4.08269 44.193 4.06467C41.9308 3.16032 39.611 2.40733 37.249 1.81067C33.9911 1.02391 30.6772 0.490317 27.337 0.214667C25.7522 0.080846 24.1627 0.00923541 22.5723 0L22.4347 0ZM22.4347 0.842333H22.5677C24.152 0.861 25.573 0.912333 27.148 1.05233C30.3598 1.31966 33.5459 1.8369 36.6773 2.59933C38.9488 3.17846 41.179 3.90887 43.353 4.78567C43.3983 4.80287 43.4427 4.82234 43.486 4.844L43.3973 10.15C43.3833 10.1408 43.3685 10.133 43.353 10.1267C41.1797 9.2501 38.9503 8.51969 36.6797 7.94033C33.5474 7.1788 30.3605 6.66234 27.148 6.39567C25.573 6.25567 24.159 6.16233 22.5747 6.14367H22.4393C20.855 6.16467 19.4293 6.25567 17.8543 6.39567C14.6424 6.66475 11.4563 7.18354 8.325 7.94733C6.0535 8.52733 3.8233 9.25852 1.64933 10.136C1.63306 10.1423 1.61743 10.1501 1.60266 10.1593L1.514 4.837L1.64933 4.78567C3.82255 3.90895 6.05197 3.17854 8.32266 2.59933C11.4556 1.83583 14.6432 1.31782 17.8567 1.05C19.4317 0.91 20.8527 0.863333 22.437 0.842333H22.4347ZM23.1067 1.34633C22.4051 1.33353 21.7033 1.33975 21.002 1.365C20.7197 1.37667 20.33 1.61933 20.3253 1.90167L20.309 3.41367C20.3043 3.72167 20.7103 3.96433 21.0207 3.97133C22.0987 3.99467 23.0507 3.976 24.096 4.04133C24.173 4.04833 24.2407 4.095 24.2407 4.172L24.2337 4.47533C24.2351 4.48958 24.2333 4.50395 24.2286 4.51745C24.2238 4.53095 24.2162 4.54325 24.2062 4.55348C24.1962 4.56371 24.1841 4.57163 24.1707 4.57667C24.1573 4.58171 24.1429 4.58376 24.1287 4.58267C22.913 4.58267 21.6413 4.52433 20.4117 4.62233C20.3463 4.627 20.3487 4.61067 20.3463 4.676L20.2903 5.572L20.2857 5.642C21.7482 5.55752 23.2144 5.55752 24.677 5.642C24.8476 5.63681 25.0113 5.57331 25.1408 5.46207C25.2703 5.35083 25.3578 5.19857 25.3887 5.03067L25.4027 3.56767C25.4027 3.26667 25.034 3.045 24.7937 3.031C23.7623 2.96567 22.5887 3.00067 21.541 2.97267C21.5265 2.97209 21.5122 2.96857 21.4991 2.96233C21.486 2.95608 21.4743 2.94723 21.4647 2.93632C21.4551 2.92542 21.4478 2.91267 21.4433 2.89886C21.4387 2.88506 21.4371 2.87047 21.4383 2.856L21.4593 2.51767C21.4593 2.45233 21.5037 2.43367 21.569 2.43133C22.605 2.394 24.152 2.443 25.2137 2.47567C25.2524 2.46912 25.2877 2.44919 25.3132 2.41935C25.3388 2.3895 25.3531 2.35164 25.3537 2.31233V1.57267C25.3537 1.533 25.279 1.41633 25.2067 1.414V1.41167C24.507 1.38037 23.8069 1.35859 23.1067 1.34633ZM18.72 1.49567C17.733 1.51433 15.591 1.78733 14.3753 1.939L14.3683 6.16V6.21367L15.465 6.07367C15.4697 6.07315 15.4742 6.07163 15.4782 6.06921C15.4822 6.0668 15.4857 6.06354 15.4883 6.05967C15.4936 6.05308 15.4961 6.04472 15.4953 6.03633V4.816L17.705 4.578C17.8987 4.543 18.125 4.68533 18.3023 4.97233C18.4442 5.21501 18.5347 5.48424 18.5683 5.76333L19.658 5.68167C19.6813 5.68167 19.728 5.68167 19.7233 5.65833C19.691 5.07008 19.4347 4.51652 19.007 4.11133C19.1494 4.05369 19.2703 3.95299 19.3527 3.82331C19.4351 3.69362 19.475 3.54143 19.4667 3.388C19.4781 2.94868 19.461 2.50909 19.4153 2.072C19.3781 1.91244 19.2893 1.76956 19.1628 1.66541C19.0363 1.56126 18.8791 1.50161 18.7153 1.49567H18.72ZM27.0967 1.54C26.8696 1.53133 26.6471 1.60494 26.4701 1.74727C26.293 1.88961 26.1733 2.0911 26.133 2.31467L26.1097 5.103C26.1171 5.26097 26.1758 5.41223 26.2768 5.53389C26.3778 5.65556 26.5157 5.74101 26.6697 5.77733C28.093 5.91033 29.493 6.03867 31.0797 6.279C31.1053 6.279 31.1543 6.26267 31.1543 6.23933V5.26867C31.1543 5.24767 31.1077 5.20333 31.0913 5.19867C30.032 5.06567 28.6343 4.879 27.3837 4.74833C27.3465 4.73933 27.3133 4.71856 27.2889 4.68913C27.2645 4.6597 27.2503 4.62317 27.2483 4.585V2.69033C27.2483 2.611 27.365 2.569 27.4443 2.57367C28.6787 2.67633 29.9083 2.90033 31.1403 3.03333C31.173 3.038 31.2243 3.017 31.2267 2.98433L31.25 2.093C31.2484 2.07462 31.241 2.05723 31.2288 2.04337C31.2167 2.02951 31.2004 2.01992 31.1823 2.016C29.8253 1.82439 28.4637 1.66568 27.099 1.54H27.0967ZM31.7167 2.093C31.6887 2.093 31.6653 2.12567 31.6653 2.15133C31.6513 2.79067 31.5603 5.551 31.5417 6.286V6.349C31.9033 6.412 32.3023 6.461 32.5987 6.52167C32.6313 6.52633 32.6803 6.503 32.6803 6.47033C32.6757 5.98733 32.6803 5.425 32.671 4.98633C32.671 4.956 32.685 4.95367 32.7177 4.95833C33.5778 5.11409 34.435 5.28523 35.289 5.47167C35.3077 5.47167 35.4103 5.488 35.4103 5.54167C35.4033 6.048 35.394 6.475 35.38 6.98133C35.3793 7.00155 35.385 7.02148 35.3963 7.03825C35.4076 7.05502 35.424 7.06777 35.443 7.07467C35.7813 7.15167 36.1033 7.231 36.423 7.308C36.5093 7.32667 36.5233 7.31033 36.5257 7.28C36.577 6.22767 36.5957 4.54067 36.6097 3.11733C36.6097 3.09867 36.6027 3.07067 36.5863 3.066C36.2293 2.98433 35.8933 2.898 35.5293 2.821C35.4967 2.814 35.478 2.86767 35.4757 2.90267C35.4407 3.423 35.4547 3.906 35.415 4.424C35.415 4.44267 35.415 4.452 35.394 4.44733C34.5307 4.27 33.609 4.07867 32.7527 3.91767C32.7293 3.913 32.7387 3.871 32.741 3.84533L32.748 2.32167C32.7468 2.305 32.7403 2.28915 32.7294 2.27652C32.7184 2.2639 32.7037 2.25517 32.6873 2.25167C32.3635 2.19582 32.0391 2.14293 31.7143 2.093H31.7167ZM13.0127 2.14667C12.9839 2.14491 12.9551 2.14491 12.9263 2.14667C11.6593 2.34733 10.3853 2.61567 9.09966 2.89333C8.89349 2.95307 8.70778 3.06852 8.563 3.227C8.42774 3.3519 8.34305 3.52211 8.325 3.70533L8.33433 6.314C8.34418 6.54291 8.43138 6.76172 8.58166 6.93467C8.63288 7.01416 8.70339 7.07939 8.78663 7.12427C8.86986 7.16915 8.9631 7.19222 9.05766 7.19133C10.3222 6.91269 11.5926 6.66141 12.868 6.43767C13.113 6.37984 13.3324 6.24388 13.4933 6.05033C13.6309 5.90428 13.7119 5.71403 13.722 5.51367L13.7173 2.8C13.7091 2.70936 13.682 2.62145 13.6378 2.54189C13.5936 2.46233 13.5333 2.39288 13.4607 2.338C13.3386 2.22537 13.1809 2.15929 13.015 2.15133L13.0127 2.14667ZM18.0457 2.60633C18.0916 2.60372 18.1367 2.61906 18.1715 2.6491C18.2064 2.67913 18.2282 2.72153 18.2323 2.76733L18.2393 3.20833C18.2377 3.30061 18.2044 3.38952 18.1448 3.46007C18.0853 3.53062 18.0033 3.57851 17.9127 3.59567L15.4347 3.83833L15.4137 3.81967V2.87L15.4347 2.86067L18.027 2.60867C18.0332 2.60834 18.0394 2.60834 18.0457 2.60867V2.60633ZM12.1657 3.283C12.2296 3.28491 12.2921 3.30254 12.3477 3.33433C12.3889 3.36053 12.4223 3.39729 12.4444 3.44079C12.4666 3.48429 12.4767 3.53294 12.4737 3.58167L12.4527 5.22433C12.4548 5.27137 12.4455 5.31822 12.4256 5.36088C12.4057 5.40355 12.3757 5.44076 12.3383 5.46933C12.2544 5.52636 12.1587 5.56383 12.0583 5.579C11.2841 5.73321 10.5087 5.88099 9.732 6.02233C9.69695 6.03112 9.66041 6.03212 9.62493 6.02527C9.58946 6.01842 9.55591 6.00387 9.52666 5.98267C9.49986 5.95051 9.47984 5.91326 9.46781 5.87316C9.45578 5.83306 9.45199 5.79094 9.45666 5.74933V4.05533C9.45797 3.97079 9.49133 3.88989 9.55 3.829C9.62834 3.75698 9.72538 3.70847 9.83 3.689C10.5067 3.563 11.3933 3.388 12.0887 3.28767C12.1141 3.28357 12.1399 3.282 12.1657 3.283ZM37.389 3.283L37.3867 3.28533C37.368 3.28533 37.368 3.31333 37.368 3.32967C37.3353 4.74367 37.298 6.05267 37.2863 7.46667C37.2863 7.497 37.3003 7.53667 37.3283 7.54367C39.0335 8.00211 40.7141 8.54727 42.3637 9.177C42.4383 9.20267 42.436 9.14667 42.436 9.12567C42.443 8.80367 42.4593 8.477 42.443 8.155C42.441 8.13814 42.4345 8.12213 42.4243 8.1086C42.414 8.09506 42.4003 8.0845 42.3847 8.078C41.1166 7.58958 39.8237 7.16822 38.5113 6.81567C38.4986 6.81135 38.4875 6.8032 38.4796 6.79234C38.4716 6.78149 38.4672 6.76845 38.467 6.755L38.4857 6.335C38.4857 6.31633 38.5183 6.31167 38.537 6.31633C39.8523 6.68551 41.1522 7.1074 42.4337 7.581C42.457 7.588 42.457 7.55767 42.457 7.53667C42.4736 7.17286 42.4736 6.80848 42.457 6.44467C42.4562 6.43103 42.4514 6.41793 42.4431 6.4071C42.4347 6.39627 42.4233 6.38822 42.4103 6.384C41.1531 5.92632 39.8781 5.51921 38.5883 5.16367C38.5697 5.159 38.5463 5.14033 38.5463 5.12167V4.67367C38.5463 4.655 38.5767 4.64333 38.5953 4.65033C39.9113 4.98633 41.358 5.49033 42.3637 5.86133C42.4523 5.894 42.5037 5.88 42.5037 5.79833C42.5037 5.432 42.5177 5.40633 42.499 5.04233C42.4943 4.99567 42.4897 4.949 42.4477 4.93267C40.7912 4.29311 39.1018 3.74244 37.3867 3.283H37.389ZM7.12566 3.43233C7.05974 3.43172 6.99396 3.43877 6.92966 3.45333C5.413 3.84067 3.88933 4.41933 2.36566 4.97467C2.34482 4.98747 2.32751 5.00527 2.31528 5.02646C2.30306 5.04765 2.29632 5.07155 2.29566 5.096V8.51667L2.30266 9.28667C2.30266 9.28667 3.40166 8.87367 3.63966 8.79667C3.67 8.78733 3.67 8.757 3.67 8.72433L3.64666 7.511C3.64666 7.476 3.65133 7.42467 3.684 7.41767L7.47566 6.24633C7.60321 6.19998 7.71491 6.11823 7.79766 6.01067C7.88025 5.9077 7.92329 5.77859 7.919 5.64667L7.87933 4.053C7.86946 3.96074 7.83948 3.87177 7.79151 3.79235C7.74354 3.71293 7.67873 3.645 7.60166 3.59333C7.46253 3.49385 7.29666 3.43856 7.12566 3.43467V3.43233ZM6.45833 4.58967C6.54233 4.56633 6.62166 4.662 6.62633 4.73667C6.64875 4.93026 6.6581 5.12515 6.65433 5.32C6.652 5.425 6.50033 5.54633 6.39766 5.57667L3.635 6.47733C3.60933 6.48667 3.56266 6.47733 3.56266 6.44933L3.56733 5.614C3.56733 5.57433 3.614 5.54167 3.65133 5.53C4.56775 5.1618 5.50504 4.84781 6.45833 4.58967ZM22.7147 6.87867C24.2383 6.902 25.622 6.94867 27.148 7.084C30.359 7.35151 33.5443 7.86874 36.675 8.631C38.9465 9.20993 41.1767 9.94034 43.3507 10.8173C43.3619 10.822 43.3729 10.8274 43.3833 10.8337C43.377 11.1821 43.3716 11.5305 43.367 11.879H22.7147V6.87867ZM21.975 6.88333L21.9727 17.6587H15.0963C14.996 17.6493 15.0613 17.605 15.1313 17.5373C15.6239 17.1694 16.1949 16.9202 16.7997 16.8093C16.851 16.8047 16.865 16.7767 16.7927 16.6833C16.5139 16.4054 16.1626 16.2115 15.7788 16.1241C15.395 16.0366 14.9943 16.059 14.6227 16.1887C14.2887 16.2965 13.9838 16.4793 13.7314 16.7232C13.479 16.9671 13.2858 17.2655 13.1667 17.5957C13.1618 17.6166 13.1499 17.6353 13.1329 17.6485C13.1159 17.6616 13.0948 17.6686 13.0733 17.668C12.7082 17.6909 12.3425 17.701 11.9767 17.6983C11.9183 17.6983 11.8903 17.6237 11.895 17.5677C11.9429 17.3342 12.0387 17.1133 12.1765 16.9189C12.3143 16.7245 12.491 16.5609 12.6953 16.4383C13.0574 16.1998 13.4741 16.0569 13.9063 16.023C13.9209 16.0186 13.9342 16.0108 13.945 16.0001C13.9558 15.9895 13.9639 15.9763 13.9685 15.9618C13.9731 15.9473 13.9741 15.9319 13.9714 15.917C13.9687 15.902 13.9624 15.888 13.953 15.876C13.8816 15.7928 13.7992 15.7198 13.708 15.659C13.3485 15.4651 12.933 15.4016 12.532 15.4793C11.9579 15.535 11.4217 15.7909 11.0173 16.2021C10.6129 16.6133 10.3661 17.1537 10.32 17.7287C10.2967 17.8687 10.334 17.9013 10.1963 17.948C9.935 18.0367 9.445 18.0973 9.18366 18.1533C9.137 18.1603 9.067 18.053 9.07866 18.0063C9.17562 17.5631 9.37011 17.147 9.648 16.7883C9.85944 16.5048 10.1322 16.2726 10.446 16.1093C10.5067 16.079 10.5627 16.0067 10.5067 15.96C9.91633 15.4467 8.70766 15.988 8.22 16.5223C7.75953 17.1308 7.53193 17.884 7.57833 18.6457C7.57833 18.683 7.611 18.7413 7.57833 18.7553C7.27241 18.8854 6.96101 19.0022 6.645 19.1053C6.617 19.1123 6.61233 19.04 6.60766 19.012C6.51429 18.4609 6.63716 17.8951 6.95066 17.4323C7.08766 17.1981 7.28405 17.0041 7.52 16.87C7.54333 16.856 7.53866 16.828 7.52 16.8047C7.25166 16.457 6.19233 16.7067 5.868 17.024C5.12133 17.752 5.175 18.459 5.14 19.5837C5.13766 19.6373 5.07 19.8427 5.00933 19.8707C4.87678 19.9496 4.7315 20.0049 4.58 20.034C4.531 20.048 4.52633 20.0667 4.51466 20.0177C4.47436 19.8864 4.40488 19.766 4.31142 19.6654C4.21796 19.5648 4.10295 19.4867 3.97501 19.4368C3.84707 19.387 3.70951 19.3668 3.57263 19.3776C3.43576 19.3885 3.30313 19.4302 3.18466 19.4997C3.08465 19.564 2.9996 19.649 2.93528 19.749C2.87096 19.849 2.82886 19.9617 2.81182 20.0794C2.79479 20.1971 2.80322 20.317 2.83655 20.4312C2.86987 20.5453 2.92732 20.651 3.005 20.741C3.04 20.7807 3.05166 20.8203 2.998 20.8367C2.87321 20.8751 2.75735 20.938 2.65723 21.0218C2.55711 21.1056 2.47475 21.2086 2.41497 21.3246C2.35519 21.4407 2.31922 21.5676 2.30915 21.6977C2.29908 21.8279 2.31512 21.9588 2.35633 22.0827C2.41246 22.2219 2.50738 22.3421 2.62982 22.4289C2.75225 22.5158 2.89704 22.5657 3.047 22.5727C3.35408 22.5812 3.65608 22.4931 3.91033 22.3207C3.92105 22.313 3.93318 22.3075 3.94602 22.3046C3.95886 22.3016 3.97216 22.3012 3.98517 22.3033C3.99817 22.3055 4.01061 22.3102 4.02179 22.3172C4.03297 22.3242 4.04267 22.3333 4.05033 22.344C4.17644 22.5465 4.37772 22.6906 4.61 22.7449C4.84228 22.7991 5.08659 22.759 5.28933 22.6333C5.66733 22.3837 5.83533 21.9963 5.55533 21.329C5.539 21.2917 5.602 21.2217 5.63466 21.203C7.87003 19.9164 10.3922 19.2104 12.9707 19.1497C13.3341 19.1811 13.6919 19.2604 14.0347 19.3853C14.0533 19.3892 14.0713 19.3955 14.0883 19.404L14.093 21.5997C14.0688 21.622 14.0422 21.6416 14.0137 21.658C13.5349 21.9513 13.1772 22.4067 13.0057 22.9413C12.9963 22.981 12.9917 22.9903 12.924 22.9973C12.4737 23.0417 11.993 23.107 11.545 23.142C11.5193 23.1467 11.4703 23.0977 11.4797 23.072C11.8043 22.2041 12.3968 21.462 13.1713 20.9533C13.1914 20.9332 13.2045 20.9071 13.2087 20.879C13.2129 20.8509 13.208 20.8221 13.1947 20.797C13.085 20.6919 12.9499 20.6171 12.8027 20.58C12.413 20.5504 12.0218 20.6112 11.6596 20.7578C11.2973 20.9043 10.9738 21.1325 10.7143 21.4247C10.2493 22.0042 9.99287 22.7233 9.98633 23.4663C9.984 23.5177 9.99333 23.6017 9.942 23.618C9.65266 23.709 9.333 23.7907 9.032 23.8747C8.997 23.884 8.95033 23.849 8.94333 23.8117C8.86736 23.3434 8.93505 22.8631 9.13748 22.4341C9.33992 22.005 9.6676 21.6474 10.0773 21.4083C10.1963 21.315 9.98866 21.1703 9.83933 21.1703C9.40239 21.1466 8.96804 21.2511 8.5896 21.4707C8.21117 21.6904 7.90511 22.0158 7.709 22.407C7.49354 23.0014 7.46906 23.6483 7.639 24.2573C7.646 24.311 7.68333 24.4043 7.625 24.4183C7.44066 24.4627 7.00666 24.6283 6.87133 24.6703C6.82233 24.6867 6.78966 24.6633 6.76166 24.6003C6.65525 24.23 6.63846 23.8397 6.71266 23.4617C6.81836 23.0307 7.03378 22.6344 7.338 22.3113C7.35666 22.288 7.36366 22.2367 7.338 22.225C7.06069 22.0997 6.7474 22.079 6.456 22.1667C6.21813 22.2269 5.99583 22.3371 5.80391 22.49C5.61199 22.6429 5.45486 22.8349 5.343 23.0533C4.972 23.7463 5.06766 24.4137 5.462 25.3983C5.48066 25.445 5.504 25.5337 5.462 25.5617L5.14233 25.7483C5.10266 25.7787 5.06766 25.753 5.03966 25.7133C4.91133 25.5313 4.75033 25.242 4.54966 25.1533C4.39158 25.0746 4.21497 25.0406 4.03895 25.055C3.86292 25.0693 3.69418 25.1316 3.551 25.235C3.41095 25.3568 3.30975 25.517 3.25998 25.6958C3.2102 25.8746 3.21403 26.064 3.271 26.2407C3.33624 26.3667 3.41444 26.4855 3.50433 26.5953C3.52766 26.628 3.502 26.6793 3.474 26.705C3.33633 26.8263 3.14733 26.915 3.03533 27.0317C2.91392 27.188 2.84609 27.3794 2.84189 27.5773C2.83769 27.7752 2.89733 27.9693 3.012 28.1307C3.126 28.2935 3.29339 28.4114 3.48516 28.4638C3.67693 28.5162 3.881 28.4999 4.062 28.4177C4.24982 28.3375 4.43085 28.2423 4.60333 28.133C4.66633 28.091 4.70833 28.014 4.76666 28.0747C4.90808 28.2357 5.08785 28.3585 5.28933 28.4317C5.42925 28.469 5.57564 28.4755 5.71829 28.4505C5.86094 28.4255 5.99644 28.3697 6.11533 28.287C6.25971 28.2186 6.37688 28.1036 6.44798 27.9606C6.51909 27.8175 6.53999 27.6547 6.50733 27.4983C6.43392 27.2704 6.32097 27.0571 6.17366 26.8683C6.09666 26.7867 6.092 26.7913 6.17366 26.7423C7.39111 26.0235 8.69187 25.4562 10.047 25.053C11.3244 24.6688 12.658 24.5055 13.9903 24.57H14.0977L14.1047 29.1177H1.98066C1.85466 24.1407 1.71 16.261 1.61666 10.8337C1.62716 10.8275 1.63808 10.822 1.64933 10.8173C3.82248 9.94043 6.05191 9.21002 8.32266 8.631C11.4541 7.86861 14.6402 7.35138 17.852 7.084C19.2241 6.96506 20.6002 6.89812 21.9773 6.88333H21.975ZM14.7697 8.78733C14.1884 8.80081 13.6248 8.98949 13.1527 9.32867C12.4853 9.76733 12.0887 11.1323 12.0093 11.62C12.0053 11.6424 11.9939 11.6627 11.977 11.6779C11.9601 11.6931 11.9387 11.7023 11.916 11.704C11.3851 11.771 10.8584 11.8684 10.3387 11.9957C10.3223 11.998 10.3107 11.9723 10.3107 11.956C10.3511 11.4425 10.5631 10.9576 10.9127 10.5793C11.2675 10.2373 11.6525 9.92805 12.063 9.65533C12.0933 9.62967 12.0723 9.55033 12.035 9.53633C11.7386 9.41785 11.4216 9.35932 11.1024 9.36413C10.7832 9.36894 10.4681 9.43698 10.1753 9.56433C9.76225 9.7395 9.40076 10.0173 9.12512 10.3713C8.84949 10.7253 8.66885 11.1439 8.60033 11.5873C8.54597 11.9032 8.5233 12.2237 8.53266 12.544C8.53733 12.5837 8.46266 12.586 8.42766 12.5977C7.85366 12.7773 7.25166 12.9873 6.771 13.1483C6.74766 13.1577 6.68 13.153 6.68 13.125C6.66201 12.5864 6.80411 12.0545 7.08833 11.5967C7.36833 11.1417 7.88866 10.885 8.26666 10.5023C8.29233 10.4743 8.332 10.3997 8.29233 10.3833C7.33566 9.99833 6.43266 10.3927 5.66966 11.2583C5.41132 11.6379 5.23618 12.0677 5.15575 12.5197C5.07532 12.9717 5.09142 13.4357 5.203 13.881C5.224 13.965 5.203 14.056 5.15866 14.0747C4.98472 14.156 4.80541 14.2254 4.622 14.2823C4.61387 14.2852 4.60522 14.2862 4.59666 14.2853C4.5881 14.2844 4.57985 14.2816 4.57249 14.2772C4.56513 14.2727 4.55885 14.2667 4.55409 14.2595C4.54934 14.2523 4.54623 14.2442 4.545 14.2357C4.328 13.545 3.51833 13.6803 3.152 13.8903C2.95839 13.9993 2.81568 14.1804 2.75493 14.3941C2.69418 14.6078 2.72033 14.8368 2.82766 15.0313C2.83316 15.0395 2.83693 15.0487 2.83873 15.0584C2.84054 15.0681 2.84034 15.0781 2.83816 15.0877C2.83597 15.0973 2.83184 15.1064 2.82603 15.1143C2.82021 15.1223 2.81283 15.129 2.80433 15.134C2.68082 15.193 2.5703 15.276 2.47921 15.3782C2.38811 15.4804 2.31827 15.5997 2.27375 15.7291C2.22922 15.8585 2.21091 15.9955 2.21989 16.1321C2.22886 16.2687 2.26493 16.4022 2.326 16.5247C2.4291 16.686 2.58533 16.8062 2.76768 16.8646C2.95003 16.923 3.14704 16.9158 3.32466 16.8443C3.52693 16.7664 3.71954 16.6654 3.89866 16.5433C3.90993 16.5377 3.92262 16.5356 3.93509 16.5373C3.94757 16.5389 3.95926 16.5443 3.96866 16.5527C4.04083 16.6546 4.13305 16.7407 4.23968 16.8057C4.3463 16.8707 4.46509 16.9133 4.58875 16.9308C4.7124 16.9483 4.83833 16.9403 4.9588 16.9074C5.07927 16.8744 5.19175 16.8173 5.28933 16.7393C5.55766 16.548 5.66266 16.5153 5.76533 16.17C5.78061 16.0451 5.76983 15.9185 5.73369 15.798C5.69754 15.6775 5.63681 15.5658 5.55533 15.47C5.52733 15.4467 5.553 15.3767 5.58566 15.3603C8.61858 13.7979 11.9657 12.942 15.3763 12.8567C16.6145 12.8933 17.8037 13.3481 18.7503 14.147C18.7664 14.1703 18.7881 14.1891 18.8134 14.2017C18.8387 14.2144 18.8667 14.2204 18.895 14.2193C18.9238 14.2073 18.9498 14.1895 18.9715 14.167C18.9932 14.1446 19.01 14.1179 19.021 14.0887C19.1001 13.807 19.0974 13.5086 19.0131 13.2284C18.9288 12.9483 18.7664 12.6979 18.545 12.5067C18.1588 12.1039 17.6619 11.8246 17.117 11.704C17.089 11.697 17.0703 11.6363 17.0937 11.6177C17.3156 11.3939 17.5818 11.219 17.8753 11.1043C18.3417 11.0256 18.814 10.9866 19.287 10.9877C19.3197 10.9853 19.3687 10.9527 19.357 10.9223C19.2645 10.6643 19.0991 10.4387 18.8808 10.273C18.6625 10.1073 18.4007 10.0087 18.1273 9.989C17.5772 9.92038 17.0187 10.001 16.5103 10.2223C15.9853 10.5063 15.5735 10.9617 15.3437 11.5127C15.3368 11.5266 15.3261 11.5383 15.3129 11.5466C15.2998 11.5548 15.2845 11.5592 15.269 11.5593C14.8072 11.5426 14.3451 11.5371 13.883 11.543C13.8503 11.543 13.8013 11.543 13.8013 11.5103C13.8689 11.056 14.0769 10.6341 14.3963 10.304C14.8604 9.90175 15.3997 9.59562 15.983 9.40333C16.0273 9.38933 16.0763 9.31933 16.0507 9.28433C15.9288 9.11603 15.7679 8.9799 15.5817 8.88767C15.3177 8.81763 15.0451 8.78542 14.772 8.792L14.7697 8.78733ZM22.7147 12.537H43.353C43.325 14.1377 43.2947 15.8807 43.2597 17.6587H22.7147V12.537ZM14.7557 18.2023L30.3097 18.2093C30.3189 18.2086 30.328 18.2113 30.3353 18.2169C30.3426 18.2225 30.3476 18.2306 30.3493 18.2397L30.3447 30.2283C30.333 30.8369 30.2202 31.4394 30.011 32.011C29.3917 33.7017 28.2039 35.1246 26.651 36.036C25.4228 36.7701 24.0218 37.1655 22.591 37.1817C20.6511 37.1581 18.7825 36.447 17.3177 35.175C16.5262 34.5143 15.8863 33.6909 15.4414 32.7608C14.9965 31.8308 14.757 30.8158 14.7393 29.785L14.723 18.2467C14.723 18.2163 14.7253 18.2023 14.7557 18.2023ZM31.075 18.403H43.248C43.22 19.908 43.1897 21.427 43.1687 22.897H31.075V19.4087V18.403ZM15.1173 18.5687C15.087 18.5687 15.0847 18.5803 15.0847 18.6107L15.101 29.701C15.1159 30.6919 15.3431 31.6681 15.7674 32.5637C16.1916 33.4593 16.803 34.2535 17.5603 34.8927C18.9519 36.1132 20.7332 36.7974 22.584 36.8223C23.9504 36.8064 25.2877 36.4253 26.4573 35.7187C27.9425 34.8381 29.0758 33.4689 29.6633 31.8453C29.8625 31.2958 29.9697 30.7171 29.9807 30.1327L29.9853 18.606C29.985 18.6014 29.9838 18.5969 29.9818 18.5928C29.9798 18.5886 29.9769 18.5849 29.9734 18.5819C29.97 18.5789 29.9659 18.5766 29.9616 18.5751C29.9572 18.5736 29.9526 18.573 29.948 18.5733L15.1173 18.5687ZM25.468 19.278C25.4688 19.278 25.4696 19.278 25.4703 19.278C25.5159 19.2848 25.5588 19.3038 25.5946 19.333C25.6303 19.3621 25.6575 19.4004 25.6733 19.4437L26.238 21.112C26.2495 21.1379 26.2548 21.1662 26.2536 21.1945C26.2524 21.2228 26.2446 21.2505 26.231 21.2753C26.2158 21.2938 26.1965 21.3085 26.1746 21.3182C26.1527 21.3279 26.1289 21.3324 26.105 21.3313C26.0728 21.3321 26.0411 21.3225 26.0147 21.304C25.9883 21.2856 25.9684 21.2592 25.958 21.2287L25.8693 20.937H25.0993L25.0153 21.2357C24.992 21.329 24.922 21.3383 24.8497 21.3383C24.8289 21.3354 24.809 21.3281 24.7913 21.3168C24.7735 21.3055 24.7585 21.2906 24.747 21.273C24.7336 21.2562 24.7244 21.2363 24.7204 21.2152C24.7163 21.1941 24.7174 21.1723 24.7237 21.1517L25.265 19.453C25.2771 19.4067 25.3029 19.3651 25.3392 19.3338C25.3755 19.3026 25.4204 19.2831 25.468 19.278ZM23.6877 19.2943C23.7055 19.2934 23.7235 19.2934 23.7413 19.2943C23.8603 19.2865 23.9786 19.3181 24.0777 19.3844C24.1769 19.4506 24.2514 19.5477 24.2897 19.6607C24.2943 19.6744 24.2961 19.689 24.295 19.7035C24.2939 19.718 24.2898 19.7321 24.283 19.745C24.2762 19.7579 24.2669 19.7692 24.2556 19.7784C24.2444 19.7876 24.2313 19.7944 24.2173 19.7983C24.1893 19.8129 24.1568 19.8162 24.1264 19.8075C24.096 19.7988 24.0701 19.7788 24.054 19.7517C24.0245 19.6936 23.9808 19.6439 23.9269 19.6072C23.8731 19.5705 23.8109 19.5479 23.746 19.5417C23.6771 19.5459 23.611 19.5702 23.5558 19.6117C23.5006 19.6532 23.4588 19.71 23.4357 19.775C23.3533 19.9354 23.3093 20.1127 23.3073 20.293C23.3028 20.4761 23.3395 20.6579 23.4147 20.825C23.4423 20.8972 23.4918 20.9589 23.5562 21.0015C23.6206 21.0442 23.6968 21.0657 23.774 21.063C23.8939 21.0275 23.9979 20.9517 24.0685 20.8484C24.1391 20.7451 24.1718 20.6206 24.1613 20.496V20.405H23.8463C23.8272 20.4058 23.8082 20.4024 23.7905 20.3952C23.7728 20.3879 23.7569 20.377 23.7438 20.363C23.7308 20.3491 23.7209 20.3325 23.7148 20.3143C23.7087 20.2962 23.7066 20.277 23.7087 20.258C23.7087 20.2043 23.725 20.1413 23.8463 20.1413H24.2943C24.4437 20.1413 24.4647 20.2533 24.4647 20.3513C24.4675 20.4701 24.4589 20.5889 24.439 20.706C24.3926 20.9258 24.2683 21.1213 24.089 21.2567C23.9832 21.3203 23.8625 21.3549 23.739 21.357C23.628 21.3551 23.5198 21.3225 23.4263 21.2628C23.3328 21.2031 23.2577 21.1185 23.2093 21.0187C23.0903 20.7966 23.0316 20.5472 23.039 20.2953C23.0344 20.0462 23.099 19.8006 23.2257 19.586C23.2687 19.4998 23.3345 19.4271 23.4159 19.3757C23.4974 19.3242 23.5914 19.2961 23.6877 19.2943ZM16.7157 19.299C16.7188 19.299 16.7219 19.299 16.725 19.299C17.152 19.3037 17.292 19.558 17.292 19.649C17.292 19.7307 17.1497 19.8357 17.0703 19.74C17.0248 19.6881 16.9683 19.647 16.905 19.6195C16.8416 19.5921 16.773 19.579 16.704 19.5813C16.6289 19.5736 16.5534 19.5915 16.4899 19.6322C16.4263 19.6729 16.3784 19.7339 16.354 19.8053C16.347 19.8405 16.3471 19.8767 16.3544 19.9118C16.3617 19.9469 16.376 19.9802 16.3965 20.0096C16.417 20.039 16.4432 20.064 16.4736 20.083C16.504 20.102 16.5379 20.1147 16.5733 20.1203C16.7926 20.1336 17.0059 20.1975 17.1963 20.307H17.194C17.2588 20.355 17.3102 20.4188 17.3433 20.4923C17.3764 20.5659 17.3901 20.6467 17.383 20.727C17.3865 20.8784 17.3304 21.025 17.2267 21.1353C17.15 21.2075 17.0592 21.263 16.96 21.2983C16.8608 21.3336 16.7554 21.3481 16.6503 21.3407C16.5283 21.3451 16.4073 21.3172 16.2996 21.2598C16.1918 21.2025 16.1011 21.1177 16.0367 21.014C16.0273 20.9907 16.0133 20.867 16.116 20.832C16.1504 20.8239 16.1863 20.8253 16.22 20.836C16.2537 20.8467 16.2839 20.8662 16.3073 20.8927C16.4068 20.9842 16.5362 21.0364 16.6713 21.0397C16.7967 21.0437 16.9194 21.0023 17.0167 20.923C17.0522 20.8888 17.0765 20.8446 17.0865 20.7963C17.0965 20.748 17.0917 20.6978 17.0727 20.6523C17.0238 20.5785 16.9567 20.5186 16.8777 20.4785C16.7988 20.4384 16.7108 20.4195 16.6223 20.4237C16.4725 20.4228 16.3288 20.3643 16.221 20.2603C16.1629 20.2001 16.1185 20.1281 16.0907 20.0492C16.063 19.9703 16.0525 19.8863 16.06 19.803C16.0676 19.7261 16.0925 19.6519 16.133 19.586C16.1734 19.5201 16.2282 19.4643 16.2933 19.4227C16.4184 19.3397 16.5656 19.2966 16.7157 19.299ZM20.5633 19.299C20.5641 19.299 20.5649 19.299 20.5657 19.299C20.5703 19.2988 20.575 19.2988 20.5797 19.299H21.408C21.4451 19.299 21.4807 19.3137 21.507 19.34C21.5332 19.3663 21.548 19.4019 21.548 19.439C21.548 19.4761 21.5332 19.5117 21.507 19.538C21.4807 19.5642 21.4451 19.579 21.408 19.579L21.142 19.5837V21.175C21.1375 21.2105 21.1202 21.2431 21.0934 21.2668C21.0665 21.2905 21.0319 21.3035 20.9962 21.3035C20.9604 21.3035 20.9258 21.2905 20.899 21.2668C20.8721 21.2431 20.8548 21.2105 20.8503 21.175V19.5813H20.5797C20.5425 19.5835 20.5061 19.5708 20.4783 19.5461C20.4505 19.5214 20.4337 19.4866 20.4315 19.4495C20.4293 19.4124 20.442 19.3759 20.4667 19.3481C20.4915 19.3203 20.5262 19.3035 20.5633 19.3013V19.299ZM21.87 19.299C21.8708 19.299 21.8716 19.299 21.8723 19.299C21.877 19.2988 21.8817 19.2988 21.8863 19.299H22.7123C22.7495 19.299 22.7851 19.3137 22.8113 19.34C22.8376 19.3663 22.8523 19.4019 22.8523 19.439C22.8523 19.4761 22.8376 19.5117 22.8113 19.538C22.7851 19.5642 22.7495 19.579 22.7123 19.579L22.4463 19.5837V21.175C22.4418 21.2105 22.4245 21.2431 22.3977 21.2668C22.3708 21.2905 22.3363 21.3035 22.3005 21.3035C22.2647 21.3035 22.2302 21.2905 22.2033 21.2668C22.1765 21.2431 22.1592 21.2105 22.1547 21.175V19.5813H21.8863C21.8492 19.5835 21.8127 19.5708 21.7849 19.5461C21.7572 19.5214 21.7403 19.4866 21.7382 19.4495C21.736 19.4124 21.7487 19.3759 21.7734 19.3481C21.7981 19.3203 21.8329 19.3035 21.87 19.3013V19.299ZM28.2633 19.299C28.2649 19.299 28.2664 19.299 28.268 19.299C28.2727 19.2988 28.2773 19.2988 28.282 19.299H29.1057C29.1428 19.299 29.1784 19.3137 29.2047 19.34C29.2309 19.3663 29.2457 19.4019 29.2457 19.439C29.2457 19.4761 29.2309 19.5117 29.2047 19.538C29.1784 19.5642 29.1428 19.579 29.1057 19.579L28.8443 19.5837V21.175C28.8398 21.2105 28.8225 21.2431 28.7957 21.2668C28.7688 21.2905 28.7343 21.3035 28.6985 21.3035C28.6627 21.3035 28.6282 21.2905 28.6013 21.2668C28.5745 21.2431 28.5572 21.2105 28.5527 21.175V19.5813H28.282C28.2449 19.5835 28.2084 19.5708 28.1806 19.5461C28.1528 19.5214 28.136 19.4866 28.1338 19.4495C28.1317 19.4124 28.1443 19.3759 28.1691 19.3481C28.1938 19.3203 28.2285 19.3035 28.2657 19.3013L28.2633 19.299ZM26.6837 19.3083C26.693 19.3074 26.7024 19.3074 26.7117 19.3083H27.155C27.3267 19.3033 27.496 19.3505 27.6403 19.4437C27.7146 19.5008 27.7755 19.5734 27.819 19.6564C27.8625 19.7394 27.8875 19.8308 27.8923 19.9243C27.9025 20.0089 27.8928 20.0947 27.8641 20.1749C27.8353 20.2551 27.7883 20.3275 27.7267 20.3863C27.6503 20.4649 27.5569 20.5248 27.4537 20.5613L27.407 20.5777L27.7757 21.0443C27.8088 21.0799 27.8279 21.1264 27.8293 21.175C27.8247 21.2497 27.7757 21.2917 27.6893 21.2917C27.664 21.2927 27.6389 21.2875 27.6161 21.2765C27.5933 21.2655 27.5736 21.2491 27.5587 21.2287L27.1223 20.6267H26.8493V21.1633C26.8522 21.1837 26.8504 21.2045 26.8442 21.2241C26.8379 21.2437 26.8274 21.2617 26.8133 21.2767C26.7992 21.2917 26.7819 21.3034 26.7627 21.3108C26.7435 21.3182 26.7229 21.3213 26.7023 21.3197C26.6821 21.3205 26.6619 21.3169 26.6432 21.3092C26.6245 21.3014 26.6077 21.2897 26.5939 21.2749C26.5802 21.26 26.5698 21.2423 26.5636 21.2231C26.5573 21.2038 26.5553 21.1834 26.5577 21.1633V19.4693C26.5552 19.4272 26.5685 19.3856 26.595 19.3527C26.6185 19.3281 26.6499 19.3124 26.6837 19.3083ZM17.6537 19.313C17.656 19.3129 17.6583 19.3129 17.6607 19.313H18.4937C18.5311 19.313 18.567 19.3279 18.5935 19.3543C18.62 19.3808 18.6348 19.4167 18.6348 19.4542C18.6348 19.4916 18.62 19.5275 18.5935 19.554C18.567 19.5805 18.5311 19.5953 18.4937 19.5953H18.223V21.1913C18.2185 21.2268 18.2012 21.2595 18.1744 21.2831C18.1475 21.3068 18.1129 21.3198 18.0772 21.3198C18.0414 21.3198 18.0068 21.3068 17.98 21.2831C17.9531 21.2595 17.9358 21.2268 17.9313 21.1913V19.5953H17.6607C17.6235 19.5963 17.5876 19.5824 17.5606 19.5568C17.5337 19.5312 17.5181 19.496 17.5172 19.4588C17.5162 19.4217 17.5301 19.3857 17.5557 19.3588C17.5813 19.3319 17.6165 19.3163 17.6537 19.3153V19.313ZM19.014 19.313C19.0156 19.313 19.0171 19.313 19.0187 19.313C19.0386 19.3124 19.0584 19.3158 19.0769 19.323C19.0954 19.3303 19.1123 19.3412 19.1265 19.3552C19.1407 19.3691 19.1519 19.3858 19.1594 19.4043C19.1669 19.4227 19.1707 19.4424 19.1703 19.4623V20.5613C19.1622 20.6849 19.1923 20.8079 19.2567 20.9137C19.2913 20.9583 19.3366 20.9937 19.3883 21.0165C19.44 21.0393 19.4966 21.0489 19.553 21.0443C19.6088 21.0498 19.665 21.0407 19.7162 21.0177C19.7673 20.9948 19.8116 20.9589 19.8447 20.9137C19.9059 20.8077 19.9344 20.6858 19.9263 20.5637V19.46H19.9287C19.9332 19.4245 19.9505 19.3919 19.9773 19.3682C20.0042 19.3445 20.0387 19.3315 20.0745 19.3315C20.1103 19.3315 20.1448 19.3445 20.1717 19.3682C20.1985 19.3919 20.2158 19.4245 20.2203 19.46V20.468C20.2365 20.6801 20.1911 20.8924 20.0897 21.0793C20.0302 21.163 19.9497 21.2295 19.8563 21.2721C19.7629 21.3147 19.6599 21.3319 19.5577 21.322C19.455 21.3305 19.3518 21.3126 19.2579 21.2702C19.164 21.2277 19.0825 21.162 19.021 21.0793C18.9132 20.8945 18.8636 20.6815 18.8787 20.468V19.46C18.8785 19.423 18.8924 19.3872 18.9175 19.36C18.9426 19.3327 18.9771 19.3159 19.014 19.313ZM26.84 19.5813V20.3467H27.1433C27.2011 20.3531 27.2596 20.3476 27.3151 20.3303C27.3706 20.313 27.422 20.2843 27.4658 20.2462C27.5097 20.208 27.5452 20.1611 27.57 20.1085C27.5948 20.056 27.6084 19.9988 27.61 19.9407C27.6088 19.8924 27.5976 19.8448 27.5771 19.801C27.5566 19.7573 27.5273 19.7182 27.491 19.6863C27.4499 19.6496 27.402 19.6214 27.3499 19.6033C27.2978 19.5853 27.2427 19.5778 27.1877 19.5813H26.84ZM25.4773 19.6163L25.16 20.7107H25.8087L25.4773 19.6163ZM22.8173 21.9613C22.843 21.9613 22.8663 21.966 22.8687 21.987C22.8733 22.029 22.8313 22.0547 22.7707 22.085C22.6802 22.1233 22.6036 22.1885 22.5513 22.2717C22.4867 22.3877 22.4552 22.5193 22.4603 22.652C22.4692 22.6919 22.487 22.7292 22.5125 22.7612C22.538 22.7931 22.5704 22.8188 22.6073 22.8363C22.7107 22.885 22.8245 22.9074 22.9387 22.9017C23.1148 22.8911 23.2863 22.8408 23.4403 22.7547C23.6481 22.6875 23.869 22.6715 24.0843 22.708C24.2467 22.7097 24.4046 22.761 24.537 22.855C24.593 22.8947 24.5837 22.9437 24.5627 22.9483C24.53 22.96 24.495 22.9203 24.46 22.925C24.3474 22.9363 24.2363 22.9598 24.1287 22.995C23.9887 23.058 23.9257 23.0813 23.858 23.205C23.8309 23.2576 23.8251 23.3186 23.8417 23.3753C23.865 23.4313 23.9233 23.4687 23.935 23.5083C23.9691 23.6128 24.0195 23.7113 24.0843 23.8C24.106 23.82 24.1294 23.838 24.1543 23.8537C24.3866 24.0271 24.6065 24.2166 24.8123 24.4207C24.8574 24.4862 24.8891 24.5599 24.9057 24.6377C24.9127 24.6657 24.8893 24.7077 24.8637 24.696C24.8337 24.676 24.8056 24.6534 24.7797 24.6283C24.7445 24.5906 24.7025 24.5597 24.656 24.5373C24.5259 24.4846 24.3849 24.4646 24.2453 24.479C24.1823 24.479 24.0563 24.535 24.1287 24.563C24.2523 24.6262 24.3582 24.7192 24.4367 24.8337C24.6122 25.0323 24.7019 25.2924 24.6863 25.557C24.6863 25.571 24.6583 25.5803 24.6513 25.571C24.5907 25.4705 24.5096 25.3838 24.4133 25.3167C24.2717 25.213 24.0985 25.1619 23.9233 25.172C23.8883 25.1743 23.7833 25.172 23.795 25.2047C23.9047 25.3437 24.0008 25.493 24.082 25.6503C24.1659 25.854 24.1972 26.0754 24.173 26.2943C24.1707 26.306 24.1263 26.3177 24.1193 26.306C24.0648 26.2417 24.0047 26.1823 23.9397 26.1287C23.8745 26.0705 23.8005 26.0233 23.7203 25.9887C23.559 25.9515 23.3897 25.9747 23.2443 26.054C23.1155 26.1251 23.0101 26.2321 22.941 26.362C22.8582 26.5089 22.8088 26.6722 22.7963 26.8403C22.7706 27.0455 22.8046 27.2537 22.8943 27.44C22.9927 27.6156 23.1496 27.751 23.3377 27.8227C23.5893 27.9028 23.8532 27.9376 24.117 27.9253C24.4413 27.937 24.7657 27.888 25.09 27.8787C25.3974 27.8495 25.707 27.8519 26.014 27.8857C26.2626 27.935 26.4999 28.0299 26.714 28.1657C26.8887 28.2989 27.0562 28.4415 27.2157 28.5927C27.2343 28.6067 27.2763 28.5857 27.2973 28.5717C27.4506 28.4245 27.5569 28.2354 27.603 28.028C27.6332 27.827 27.5866 27.6221 27.4723 27.454C27.3627 27.2557 27.2017 27.034 27.0757 26.824C26.9048 26.6035 26.7474 26.3729 26.6043 26.1333C26.5269 25.9725 26.5127 25.7884 26.5647 25.6177C26.6091 25.4912 26.6978 25.3852 26.8143 25.319C26.84 25.3027 26.8657 25.333 26.854 25.368C26.8207 25.451 26.8142 25.5424 26.8353 25.6293C26.8746 25.7546 26.9463 25.8673 27.043 25.956C27.0733 25.9793 27.1527 25.9443 27.1713 25.907C27.2133 25.8067 27.1877 25.6503 27.225 25.5477C27.2722 25.3566 27.3579 25.1771 27.477 25.0203C27.7343 24.8294 28.017 24.6755 28.317 24.563C28.394 24.5187 28.443 24.318 28.5293 24.3507C28.6157 24.381 28.569 24.584 28.5037 24.682C28.4103 24.8267 28.3007 24.9153 28.198 25.046C28.0578 25.226 27.9352 25.419 27.8317 25.6223C27.7752 25.7188 27.7515 25.8309 27.764 25.942C27.7745 25.9888 27.7953 26.0328 27.8247 26.0707C27.8541 26.1086 27.8916 26.1395 27.9343 26.1613C27.9857 26.1847 28.051 26.138 28.0977 26.103C28.1873 26.0376 28.264 25.9561 28.324 25.8627C28.3777 25.774 28.3473 25.655 28.3987 25.564C28.4127 25.543 28.4687 25.5477 28.485 25.564C28.5411 25.6153 28.5775 25.6847 28.5877 25.76C28.5927 25.8486 28.5848 25.9374 28.5643 26.0237C28.5573 26.0423 28.5083 26.0867 28.492 26.1287C28.4793 26.1611 28.4637 26.1924 28.4453 26.222C28.3613 26.369 28.2633 26.4927 28.1537 26.516C28.1303 26.5183 28.114 26.565 28.1303 26.586C28.194 26.7071 28.2841 26.8124 28.394 26.894C28.4486 26.9211 28.5081 26.9371 28.569 26.9411C28.6299 26.9451 28.6909 26.9371 28.7487 26.9173C28.8117 26.8987 28.8607 26.8543 28.933 26.831C28.9633 26.8217 28.9447 26.8403 28.9447 26.8707C28.944 26.939 28.9321 27.0068 28.9097 27.0713C28.8721 27.152 28.8111 27.2195 28.7347 27.265C28.6158 27.3321 28.4835 27.3719 28.3473 27.3817C28.2843 27.3933 28.1887 27.44 28.212 27.5007C28.232 27.5723 28.2653 27.6396 28.31 27.699C28.3585 27.7518 28.4252 27.7843 28.4967 27.79C28.6004 27.7944 28.7028 27.7649 28.7883 27.706C28.8817 27.6453 28.9307 27.5333 29.0123 27.454C29.0287 27.44 29.073 27.454 29.073 27.4773C29.0698 27.6059 29.037 27.7321 28.9773 27.846C28.8992 27.9714 28.7978 28.0807 28.6787 28.168C28.6437 28.1983 28.6017 28.2357 28.6017 28.2823C28.6197 28.355 28.6549 28.4222 28.7043 28.4783C28.7504 28.5435 28.8197 28.5886 28.898 28.6043C28.9751 28.6189 29.0542 28.6189 29.1313 28.6043C29.1617 28.6043 29.1547 28.658 29.129 28.6767C29.0541 28.7534 28.9597 28.8082 28.856 28.8353C28.7598 28.8674 28.6568 28.8739 28.5573 28.854C28.3683 28.8073 28.2447 28.7373 28.058 28.6837C27.9575 28.6452 27.8477 28.6379 27.743 28.6627C27.6429 28.7007 27.5566 28.7683 27.4957 28.8563C27.4593 28.8989 27.4351 28.9505 27.4257 29.0057C27.4117 29.1527 27.484 29.309 27.4373 29.4537C27.3904 29.6408 27.3272 29.8235 27.2483 29.9997C27.1689 30.1347 27.0791 30.2634 26.98 30.3847C26.8867 30.5107 26.763 30.5573 26.7 30.695C26.6733 30.7457 26.6437 30.7947 26.6113 30.842C26.5254 31.0072 26.4791 31.1901 26.476 31.3763C26.4998 31.553 26.5681 31.7208 26.6743 31.864L27.0313 32.417C27.0566 32.4782 27.0639 32.5454 27.0523 32.6107C27.0499 32.6442 27.0393 32.6767 27.0214 32.7051C27.0035 32.7336 26.9788 32.7573 26.9497 32.774C26.4758 33.0406 26.125 33.4819 25.972 34.0037L25.9673 34.034V34.0433C25.9585 34.0793 25.9418 34.1127 25.9183 34.1413C25.7989 34.2624 25.6432 34.341 25.475 34.3653C25.3467 34.4003 25.2183 34.433 25.09 34.4727C25.0482 34.4836 25.0117 34.5093 24.9873 34.545C24.9654 34.5798 24.9556 34.6208 24.9594 34.6617C24.9632 34.7027 24.9804 34.7412 25.0083 34.7713C25.047 34.8187 25.0713 34.8762 25.0783 34.937C25.0803 34.9722 25.0695 35.007 25.048 35.035C25.0292 35.0556 25.0071 35.073 24.9827 35.0863C24.8246 35.1764 24.655 35.2447 24.4787 35.2893C24.362 35.315 24.278 35.2847 24.3153 35.1517C24.38 34.9201 24.4564 34.6919 24.544 34.468C24.6207 34.3365 24.7269 34.2246 24.8543 34.1413C25.0117 34.0058 25.1769 33.8796 25.349 33.7633C25.4614 33.6862 25.5561 33.586 25.6267 33.4693C25.7635 33.2481 25.9115 33.0339 26.07 32.8277C26.1017 32.785 26.1241 32.7362 26.1357 32.6843C26.1474 32.6325 26.148 32.5788 26.1377 32.5267C26.1225 32.4329 26.0842 32.3444 26.0264 32.2691C25.9686 32.1937 25.893 32.1339 25.8063 32.095C25.7414 32.0657 25.6752 32.0392 25.608 32.0157C25.3814 31.9376 25.1821 31.7958 25.034 31.6073C25.0178 31.5824 24.9966 31.5612 24.9717 31.5452C24.9467 31.5291 24.9187 31.5184 24.8893 31.514C24.7423 31.5187 24.7003 31.724 24.6957 31.836C24.6838 32.0008 24.6869 32.1664 24.705 32.3307C24.7194 32.3855 24.7226 32.4426 24.7143 32.4987C24.7068 32.5183 24.6946 32.5359 24.6787 32.5497C24.6629 32.5635 24.6438 32.5733 24.6233 32.578C24.1603 32.7436 23.7179 32.962 23.305 33.229C23.2457 33.2732 23.1957 33.3287 23.158 33.3923L23.1183 33.46C23.0665 33.5464 22.9863 33.6122 22.8915 33.6462C22.7966 33.6803 22.6929 33.6804 22.598 33.6467C22.5642 33.6366 22.5299 33.628 22.4953 33.621C22.4424 33.6157 22.3893 33.6298 22.346 33.6607C22.3096 33.6831 22.2772 33.7115 22.2503 33.7447C22.2399 33.7579 22.232 33.7729 22.227 33.789V33.803C22.2266 33.8092 22.2266 33.8155 22.227 33.8217C22.2284 33.8352 22.2316 33.8486 22.2363 33.8613L22.2877 34.0013C22.2992 34.0214 22.306 34.0438 22.3077 34.0669C22.3094 34.09 22.3058 34.1132 22.2973 34.1347C22.2888 34.1562 22.2755 34.1755 22.2585 34.1912C22.2415 34.2069 22.2211 34.2186 22.199 34.2253C22.0468 34.2869 21.8878 34.33 21.7253 34.3537C21.632 34.3653 21.5503 34.3303 21.5737 34.2207C21.6072 34.0308 21.662 33.8453 21.737 33.6677C21.747 33.6357 21.7642 33.6065 21.7873 33.5822C21.8103 33.558 21.8386 33.5393 21.87 33.5277C22.0242 33.4395 22.1649 33.3294 22.2877 33.201C22.3946 33.0991 22.5345 33.0387 22.682 33.0307C22.9035 33.0113 23.1152 32.9305 23.2933 32.7973C23.4802 32.6677 23.6559 32.5225 23.8183 32.3633C23.9375 32.2091 24.001 32.0191 23.9984 31.8242C23.9959 31.6293 23.9275 31.4411 23.8043 31.29L23.7577 31.2083C23.7133 31.1383 23.6877 31.038 23.6503 30.9657C23.6014 30.893 23.5703 30.8099 23.5593 30.723C23.5593 30.5643 23.6223 30.4127 23.6317 30.254C23.6329 30.2415 23.6299 30.2289 23.6231 30.2184C23.6163 30.2078 23.6062 30.1998 23.5943 30.1957C23.4917 30.1571 23.384 30.1335 23.2747 30.1257C22.8408 30.176 22.4028 30.1807 21.968 30.1397C21.6452 30.0465 21.3383 29.9049 21.058 29.7197C20.9343 29.6427 20.8597 29.5563 20.7337 29.484C20.701 29.4653 20.6987 29.4723 20.6683 29.498C20.3588 29.7226 19.9779 29.8263 19.5973 29.7897H19.5927C19.3593 29.7496 19.1297 29.6895 18.9067 29.61C18.7363 29.547 18.4633 29.4373 18.3 29.575C18.2323 29.6333 18.2487 29.715 18.2487 29.792C18.2701 30.0293 18.2623 30.2683 18.2253 30.5037C18.221 30.5159 18.2193 30.5289 18.2205 30.5418C18.2218 30.5547 18.2258 30.5672 18.2323 30.5783C18.2365 30.5834 18.2412 30.5881 18.2463 30.5923C18.2718 30.6121 18.3001 30.6278 18.3303 30.639L18.3537 30.6483C18.419 30.6717 18.4307 30.702 18.4703 30.7837C18.4906 30.8295 18.5032 30.8784 18.5077 30.9283C18.5149 30.9765 18.5125 31.0257 18.5007 31.073C18.4948 31.1036 18.4878 31.1339 18.4797 31.164C18.4504 31.2681 18.457 31.3791 18.4983 31.479C18.5179 31.5291 18.552 31.5722 18.5963 31.6027C18.6039 31.6063 18.6117 31.6095 18.6197 31.612C18.6272 31.615 18.635 31.6173 18.643 31.619C18.6508 31.6196 18.6586 31.6196 18.6663 31.619H18.6897C18.706 31.6151 18.7218 31.6088 18.7363 31.6003L18.7457 31.5957C18.7683 31.5762 18.7975 31.5662 18.8273 31.5677C18.8353 31.5691 18.8432 31.5715 18.8507 31.5747C18.8907 31.5833 18.9268 31.6049 18.9534 31.6361C18.98 31.6673 18.9955 31.7064 18.9977 31.7473C19.003 31.9253 18.9663 32.102 18.8903 32.263C18.8832 32.2795 18.8729 32.2944 18.86 32.3069C18.8471 32.3193 18.8319 32.3291 18.8151 32.3356C18.7984 32.3421 18.7806 32.3452 18.7626 32.3448C18.7447 32.3443 18.727 32.3403 18.7107 32.333L18.6687 32.3167C18.5421 32.2492 18.4309 32.1562 18.342 32.0437C18.2761 31.9715 18.2359 31.8797 18.2277 31.7823C18.2305 31.7126 18.2072 31.6444 18.1623 31.591C18.1402 31.5737 18.1148 31.561 18.0877 31.5537C18.0238 31.5349 17.9669 31.4975 17.9243 31.4463C17.8683 31.3751 17.8284 31.2924 17.8074 31.2042C17.7865 31.116 17.785 31.0242 17.803 30.9353C17.8754 30.4356 17.8387 29.9262 17.6957 29.442C17.6656 29.3604 17.6673 29.2705 17.7003 29.19L17.7377 29.0897C17.7424 29.0769 17.7478 29.0644 17.754 29.0523C17.7636 29.0332 17.7774 29.0166 17.7943 29.0036C17.8113 28.9907 17.831 28.9818 17.852 28.9777C17.8743 28.9734 17.8969 28.971 17.9197 28.9707C18.2759 28.9694 18.6299 28.9143 18.9697 28.8073C19.0157 28.7896 19.065 28.7816 19.1143 28.784C19.171 28.7879 19.2278 28.7894 19.2847 28.7887C19.3547 28.7887 19.4247 28.7257 19.3407 28.672C19.2706 28.6091 19.2051 28.5413 19.1447 28.469C19.133 28.4482 19.1148 28.4318 19.0928 28.4225C19.0708 28.4132 19.0464 28.4115 19.0233 28.4177C19.0153 28.4209 19.0075 28.4248 19 28.4293L18.979 28.441C18.9528 28.464 18.9218 28.4807 18.8882 28.4899C18.8546 28.4991 18.8193 28.5005 18.7851 28.4939C18.7509 28.4874 18.7186 28.4731 18.6908 28.4522C18.6629 28.4313 18.6402 28.4044 18.6243 28.3733C18.5359 28.226 18.4676 28.0675 18.4213 27.902C18.382 27.6993 18.2948 27.5089 18.167 27.3467C18.1085 27.291 18.0384 27.249 17.9618 27.2236C17.8851 27.1982 17.8038 27.19 17.7237 27.1997C17.5966 27.2334 17.4877 27.3155 17.4203 27.4283L17.2733 27.6337C17.236 27.6786 17.2111 27.7325 17.201 27.79C17.2001 27.8024 17.2001 27.8149 17.201 27.8273C17.2043 27.8529 17.2105 27.8779 17.2197 27.902C17.2452 27.9637 17.2501 28.032 17.2337 28.0967C17.2173 28.1615 17.1805 28.2192 17.1287 28.2613L16.9093 28.4363C16.889 28.4539 16.8723 28.4753 16.8603 28.4993C16.8483 28.5233 16.8412 28.5495 16.8393 28.5763C16.8327 28.6235 16.8234 28.6702 16.8113 28.7163C16.8029 28.7507 16.8005 28.7862 16.8043 28.8213C16.8052 28.8308 16.8068 28.8401 16.809 28.8493C16.8225 28.8874 16.8479 28.9201 16.8813 28.9427C16.892 28.9514 16.9021 28.9608 16.9117 28.9707C16.9228 28.9825 16.9322 28.9959 16.9397 29.0103C16.953 29.037 16.9575 29.0672 16.9524 29.0966C16.9474 29.126 16.9331 29.153 16.9117 29.1737C16.8942 29.1913 16.8755 29.2077 16.8557 29.2227C16.7209 29.3278 16.5716 29.4127 16.4123 29.4747C16.3928 29.4821 16.3724 29.4868 16.3517 29.4887C16.263 29.4957 16.235 29.428 16.2303 29.3487C16.2233 29.246 16.2233 29.141 16.2233 29.036C16.2266 28.9167 16.274 28.8028 16.3563 28.7163C16.4698 28.5652 16.529 28.3802 16.5243 28.1913C16.5184 28.0823 16.5515 27.9748 16.6177 27.888C16.674 27.8263 16.719 27.7553 16.7507 27.678C16.7731 27.6224 16.8038 27.5705 16.8417 27.524C17.0784 27.2391 17.2974 26.9399 17.4973 26.628C17.6233 26.4273 17.859 26.18 18.0503 26.4577C18.1 26.5324 18.1615 26.5986 18.2323 26.6537C18.4254 26.794 18.6273 26.9218 18.8367 27.0363C19.056 27.16 19.091 26.9383 19.1283 26.754V26.747C19.1469 26.6714 19.1768 26.599 19.217 26.5323C19.3491 26.321 19.5074 26.1274 19.6883 25.956C19.7887 25.8673 19.9333 25.7787 20.0383 25.6923C20.0803 25.655 20.092 25.6503 20.1083 25.599C20.1293 25.5477 20.1643 25.4823 20.1877 25.417C20.211 25.354 20.2227 25.2887 20.2437 25.2397C20.2896 25.1693 20.3243 25.0921 20.3463 25.011V25.004C20.3468 25.0001 20.3468 24.9962 20.3463 24.9923V24.976L20.3393 24.9597C20.3295 24.9361 20.3123 24.9165 20.2903 24.9037C20.2188 24.8602 20.1359 24.8391 20.0523 24.843H20.0453C19.9266 24.844 19.8092 24.8686 19.7 24.9153C19.6438 24.9402 19.5989 24.9851 19.574 25.0413C19.5498 25.0955 19.5167 25.1452 19.476 25.1883C19.4359 25.2274 19.3829 25.2504 19.327 25.253C19.2711 25.2555 19.2162 25.2375 19.1727 25.2023C19.1167 25.165 19.14 25.102 19.1727 25.0553C19.2027 25.0185 19.23 24.9795 19.2543 24.9387C19.2642 24.9209 19.2682 24.9005 19.266 24.8803V24.871L19.2613 24.8593C19.258 24.8542 19.2541 24.8495 19.2497 24.8453C19.2351 24.8337 19.2177 24.8261 19.1993 24.8233C19.1809 24.8204 19.1621 24.8224 19.1447 24.829C19.0792 24.8471 19.0146 24.8681 18.951 24.892C18.9298 24.9035 18.9062 24.9098 18.8821 24.9102C18.8581 24.9107 18.8342 24.9053 18.8127 24.8945C18.7911 24.8837 18.7725 24.8679 18.7584 24.8484C18.7443 24.8288 18.7351 24.8062 18.7317 24.7823C18.7225 24.7402 18.7202 24.6969 18.7247 24.654C18.7261 24.6272 18.7359 24.6016 18.7526 24.5807C18.7693 24.5598 18.7922 24.5446 18.818 24.5373C18.8647 24.5233 18.9347 24.4977 18.9253 24.4393C18.9227 24.4215 18.9227 24.4035 18.9253 24.3857C18.9296 24.3649 18.9393 24.3456 18.9533 24.3297C18.9738 24.307 18.9974 24.2874 19.0233 24.2713C19.2814 24.1022 19.5306 23.92 19.77 23.7253C19.7881 23.7044 19.813 23.6905 19.8404 23.6862C19.8677 23.6819 19.8957 23.6875 19.9193 23.702L19.9427 23.716C20.051 23.7724 20.1757 23.7889 20.295 23.7627C20.3161 23.7617 20.3364 23.7545 20.3534 23.7421C20.3704 23.7296 20.3834 23.7124 20.3907 23.6927C20.3911 23.6888 20.3911 23.6849 20.3907 23.681V23.6693L20.386 23.6553L20.379 23.646C20.3572 23.622 20.3288 23.605 20.2973 23.597L20.162 23.548C20.1196 23.533 20.0789 23.5134 20.0407 23.4897C20.0172 23.4762 19.9989 23.4555 19.9883 23.4306C19.9778 23.4058 19.9757 23.3782 19.9823 23.352C20.036 23.0883 20.3253 23.086 20.5447 23.107H20.554C20.6648 23.1053 20.7747 23.088 20.8807 23.0557C21.0207 23.0067 21.128 22.8993 21.261 22.8363C21.394 22.7733 21.534 22.7033 21.6717 22.6497C21.7137 22.6357 21.7487 22.645 21.786 22.6287C21.8175 22.616 21.8455 22.596 21.8677 22.5703C21.9635 22.4315 22.0747 22.304 22.199 22.19C22.3704 22.0904 22.5561 22.018 22.7497 21.9753C22.7722 21.9673 22.7958 21.9626 22.8197 21.9613H22.8173ZM21.8257 23.261C21.7402 23.2604 21.656 23.2813 21.5807 23.3217C21.5597 23.3333 21.5457 23.359 21.562 23.3777C21.604 23.4267 21.6763 23.4477 21.7253 23.4943C21.7588 23.5249 21.7865 23.5612 21.807 23.6017C21.828 23.646 21.863 23.695 21.884 23.7417C21.9238 23.8355 21.9589 23.9313 21.989 24.0287C22.0421 24.1875 22.0811 24.3507 22.1057 24.5163C22.129 24.6493 22.122 24.7893 22.129 24.9247V25.1137C22.1267 25.1673 22.1267 25.2233 22.122 25.277C22.1156 25.3531 22.1125 25.4293 22.1127 25.5057V25.6923C22.1173 25.8557 22.143 25.9723 22.2153 25.9723C22.2833 25.9736 22.3505 25.9584 22.4113 25.928C22.4711 25.8922 22.5207 25.8416 22.5554 25.7812C22.5902 25.7207 22.6088 25.6524 22.6097 25.5827C22.6714 25.1366 22.669 24.684 22.6027 24.2387C22.5916 24.0753 22.5469 23.9159 22.4715 23.7706C22.396 23.6252 22.2913 23.497 22.164 23.394C22.0719 23.3102 21.9525 23.2629 21.828 23.261H21.8257ZM31.0657 23.6367H43.1453C43.1057 25.5617 43.066 27.37 43.0287 28.917H31.0587L31.068 24.5723L31.0657 23.6367ZM31.0517 29.5727H43.0053C42.9317 31.8885 42.5028 34.1794 41.7337 36.365C40.8175 38.9277 39.5953 41.3705 38.0937 43.6403C36.5269 45.9782 34.6287 48.076 32.4587 49.868C31.6111 50.5858 30.717 51.2468 29.7823 51.8467C28.3187 52.7376 26.7899 53.5168 25.209 54.1777C24.6863 54.4017 24.2337 54.6117 23.8183 54.754C23.368 54.9057 22.983 55.0457 22.7123 55.118V54.8497L22.7193 37.828C22.9658 37.8211 23.2118 37.8032 23.4567 37.7743C23.4683 37.8093 23.494 37.9073 23.529 38.0077C23.5817 38.1049 23.6546 38.1897 23.7427 38.2565C23.8308 38.3233 23.9322 38.3705 24.04 38.395C24.1705 38.4215 24.3057 38.4123 24.4313 38.3683C24.557 38.3244 24.6685 38.2473 24.754 38.1453C24.8753 38.2532 25.0244 38.3251 25.1844 38.3527C25.3443 38.3803 25.5089 38.3626 25.6593 38.3017C25.7763 38.2708 25.8797 38.2021 25.9536 38.1063C26.0274 38.0105 26.0676 37.893 26.0677 37.772C26.0826 37.6063 26.0562 37.4396 25.9907 37.2867L25.9067 37.1327C26.5182 36.8775 27.1003 36.5568 27.6427 36.176L27.6893 36.162C28.5597 35.9427 32.0573 34.6897 34.2017 34.6617C35.5245 34.6317 36.8325 34.9453 37.998 35.5717C38.5944 35.9201 39.1315 36.3612 39.5893 36.8783C39.6033 36.8993 39.6197 36.9437 39.6757 36.953C39.6925 36.9534 39.7091 36.9487 39.7232 36.9395C39.7374 36.9304 39.7485 36.9172 39.755 36.9017C39.9088 36.52 39.9719 36.1079 39.9393 35.6977C39.8927 35.0397 39.2393 34.5637 39.0457 34.3677C39.0387 34.3607 39.0223 34.3187 39.0923 34.272C39.1671 34.1978 39.2492 34.1314 39.3373 34.0737C39.7121 33.776 40.1706 33.603 40.6487 33.579C40.7187 33.586 40.6953 33.4857 40.6767 33.4017C40.5413 32.8183 39.7083 32.4403 38.8333 32.5757C38.5425 32.6353 38.2663 32.752 38.0208 32.919C37.7753 33.086 37.5653 33.3 37.403 33.5487C37.3867 33.5743 37.305 33.6117 37.2723 33.579C36.9911 33.477 36.7035 33.3936 36.4113 33.3293C36.3063 33.306 36.3623 33.2267 36.367 33.2127C36.5403 32.8998 36.7829 32.6308 37.0763 32.4263C37.4122 32.1607 37.8079 31.9813 38.229 31.9037C38.2803 31.9037 38.2803 31.8337 38.2663 31.8103C38.1835 31.6342 38.0616 31.4792 37.91 31.3572C37.7584 31.2351 37.5811 31.1491 37.3913 31.1057C37.0844 31.007 36.7579 30.9852 36.4406 31.0421C36.1233 31.0991 35.8248 31.2331 35.5713 31.4323C35.0783 31.8423 34.7171 32.3885 34.533 33.0027C34.5003 33.0493 34.491 33.0867 34.449 33.0773C34.218 33.0307 33.644 33.061 33.5927 33.026C33.5577 33.0097 33.5647 32.956 33.5717 32.921C33.6692 32.5875 33.847 32.2831 34.0897 32.0343C34.3083 31.7402 34.6015 31.5099 34.939 31.367C34.9592 31.3577 34.9767 31.3433 34.9896 31.3253C35.0026 31.3072 35.0107 31.2861 35.013 31.264C35.0154 31.2418 35.0119 31.2195 35.003 31.1991C34.9942 31.1787 34.9801 31.161 34.9623 31.1477C34.4905 30.9032 33.9482 30.8308 33.4287 30.9428C32.9092 31.0548 32.4449 31.3442 32.1157 31.7613C31.7865 32.2573 31.5465 32.8068 31.4063 33.3853C31.4017 33.4063 31.3667 33.4693 31.3223 33.4693L30.137 33.7307L29.9433 33.775L29.892 33.8287C30.6137 32.6712 31.014 31.3422 31.0517 29.9787V29.5727ZM2.00166 29.771H14.1117V29.981C14.134 31.7983 14.8299 33.5427 16.0647 34.8763H2.79733C2.3381 33.2104 2.07037 31.4976 1.99933 29.771H2.00166ZM2.97 35.4713H16.6503C16.7351 35.5516 16.8223 35.6295 16.9117 35.7047C18.3438 36.9072 20.1119 37.6388 21.975 37.8V40.6233H5.12833C4.40402 39.2493 3.78017 37.8245 3.26166 36.3603C3.15877 36.0667 3.06153 35.7711 2.97 35.4737V35.4713ZM27.666 36.148L27.6427 36.176H27.638L27.6333 36.1713C27.645 36.1636 27.6567 36.1558 27.6683 36.148H27.666ZM31.7213 36.5797C31.2999 36.5803 30.8881 36.7062 30.5383 36.9413C30.1416 37.1577 29.822 37.492 29.6237 37.898C29.3998 38.4772 29.2645 39.0868 29.2223 39.7063C29.2142 39.7254 29.202 39.7426 29.1868 39.7567C29.1715 39.7707 29.1534 39.7814 29.1337 39.788C28.8693 39.84 28.6083 39.9078 28.352 39.991C28.3393 39.9899 28.3272 39.9847 28.3176 39.9764C28.308 39.968 28.3012 39.9568 28.2983 39.9443C28.2159 39.3554 28.3395 38.7562 28.6483 38.248C28.7765 38.0124 28.9492 37.804 29.157 37.6343C29.1722 37.6246 29.1839 37.6103 29.1906 37.5935C29.1972 37.5767 29.1984 37.5583 29.1941 37.5408C29.1897 37.5233 29.1799 37.5076 29.1662 37.4959C29.1524 37.4842 29.1353 37.4771 29.1173 37.4757C28.5977 37.3874 28.0636 37.4814 27.6053 37.7417C27.3193 37.8996 27.0746 38.1228 26.8913 38.3933C26.708 38.6638 26.5913 38.9738 26.5507 39.298C26.4957 39.762 26.5289 40.2323 26.6487 40.684C26.6487 40.698 26.6627 40.747 26.6113 40.7563C26.434 40.8427 25.9533 41.0947 25.783 41.1763C25.7713 41.181 25.7387 41.188 25.7317 41.1623C25.6879 40.9886 25.6101 40.8254 25.5027 40.682C25.3954 40.5386 25.2607 40.4179 25.1063 40.327C24.9397 40.2587 24.7601 40.2279 24.5803 40.2368C24.4004 40.2456 24.2247 40.294 24.0657 40.3783C23.8507 40.5002 23.6756 40.6817 23.5617 40.901C23.4818 41.0851 23.4677 41.2911 23.5216 41.4844C23.5756 41.6776 23.6943 41.8465 23.858 41.9627C23.872 41.9767 23.8977 42.0093 23.858 42.021C23.648 42.1353 23.6433 42.161 23.4847 42.3967C23.4046 42.5655 23.3736 42.7534 23.395 42.939C23.4165 43.1246 23.4896 43.3005 23.606 43.4467C23.6934 43.576 23.8077 43.685 23.9411 43.7661C24.0744 43.8473 24.2237 43.8987 24.3788 43.9169C24.5338 43.935 24.691 43.9195 24.8395 43.8714C24.988 43.8233 25.1244 43.7437 25.2393 43.638C25.2487 43.631 25.2813 43.6497 25.2977 43.6847C25.3854 43.8223 25.4986 43.9419 25.6313 44.037C25.7933 44.1284 25.9762 44.1764 26.1622 44.1764C26.3482 44.1764 26.531 44.1284 26.693 44.037C26.8625 43.9435 26.9999 43.8011 27.0873 43.6284C27.1747 43.4557 27.208 43.2606 27.183 43.0687C27.1796 42.8389 27.0867 42.6196 26.924 42.4573C26.8937 42.42 26.924 42.4013 27.0033 42.35C28.4134 41.5421 29.9663 41.0145 31.5767 40.796C32.4102 40.6676 33.2597 40.685 34.0873 40.8473C34.6271 40.9708 35.1301 41.2203 35.555 41.5753C35.9015 41.8554 36.2189 42.1696 36.5023 42.5133C36.5974 42.529 36.6949 42.5081 36.7753 42.455C36.8617 42.2665 36.9091 42.0625 36.9147 41.8552C36.9204 41.6479 36.884 41.4416 36.808 41.2487C36.615 40.7291 36.3089 40.2589 35.912 39.872C35.905 39.8673 35.905 39.8417 35.905 39.8253C35.8957 39.7553 35.94 39.7203 36.0263 39.641C36.3939 39.2974 36.8466 39.0581 37.3377 38.948C37.4007 38.9433 37.4263 38.8967 37.3843 38.8243C37.2068 38.5005 36.9182 38.2518 36.5717 38.124C36.2253 37.9962 35.8443 37.998 35.499 38.129H35.4967C35.0421 38.3206 34.6678 38.6636 34.4373 39.0997C34.4233 39.1253 34.386 39.2163 34.351 39.1883C34.141 39.1697 33.7863 39.1137 33.5787 39.095C33.483 39.0903 33.5203 39.004 33.5227 38.99C33.6089 38.71 33.7646 38.4563 33.9753 38.2527C34.2576 37.9275 34.6126 37.6733 35.0113 37.5107C35.0193 37.5098 35.027 37.5069 35.0336 37.5023C35.0402 37.4977 35.0456 37.4916 35.0493 37.4845C35.053 37.4773 35.0549 37.4694 35.0547 37.4613C35.0546 37.4533 35.0525 37.4454 35.0487 37.4383C34.9164 37.2771 34.7511 37.146 34.564 37.0538C34.3768 36.9616 34.1722 36.9106 33.9637 36.904C33.6981 36.8901 33.4327 36.9324 33.1846 37.028C32.9365 37.1237 32.7114 37.2707 32.524 37.4593C32.0775 37.9317 31.8009 38.5391 31.7377 39.186C31.7167 39.2397 31.691 39.2677 31.6513 39.2677C31.4367 39.3022 31.22 39.3217 31.0027 39.326C30.9677 39.3167 30.97 39.2793 30.97 39.242C30.9739 38.9122 31.0546 38.5879 31.2057 38.2947C31.5016 37.7334 31.9454 37.2638 32.489 36.9367C32.573 36.8783 32.5777 36.7593 32.5497 36.7453C32.2874 36.6353 32.0057 36.5789 31.7213 36.5797ZM5.483 41.2813H21.9773V46.3913H8.997C8.23861 45.5199 7.53864 44.5994 6.90166 43.6357C6.39997 42.8674 5.926 42.0813 5.48066 41.279L5.483 41.2813ZM28.9937 44.0253C28.7702 44.0165 28.549 44.0724 28.3567 44.1863C27.8321 44.4622 27.4349 44.9305 27.2483 45.493C27.1391 45.9317 27.1487 46.3916 27.2763 46.8253C27.2833 46.8417 27.3043 46.8813 27.2717 46.8953C27.0897 46.9653 26.9543 47.047 26.7747 47.1193C26.7653 47.1193 26.7187 47.131 26.7093 47.1077C26.558 46.8364 26.4964 46.5241 26.5333 46.2157C26.5701 45.9072 26.7036 45.6183 26.9147 45.3903C26.9543 45.3553 26.9777 45.3087 26.896 45.2807C26.6683 45.2457 26.4354 45.2686 26.2189 45.3473C26.0023 45.426 25.8091 45.5579 25.657 45.731C25.4821 45.9417 25.365 46.1942 25.3172 46.4637C25.2693 46.7333 25.2923 47.0107 25.384 47.2687C25.4296 47.4822 25.5075 47.6876 25.615 47.8777C25.622 47.8893 25.685 47.9267 25.6477 47.943L25.2977 48.2113C25.2907 48.2183 25.265 48.23 25.2533 48.2113C25.183 48.0785 25.0869 47.9611 24.9707 47.8657C24.8546 47.7704 24.7206 47.6991 24.5767 47.656C24.4461 47.6251 24.3098 47.6277 24.1804 47.6636C24.0511 47.6995 23.933 47.7675 23.837 47.8613C23.7333 47.9636 23.6578 48.0911 23.6181 48.2312C23.5783 48.3714 23.5756 48.5194 23.6101 48.6609C23.6447 48.8025 23.7153 48.9326 23.8152 49.0387C23.9151 49.1447 24.0408 49.223 24.18 49.266C24.1963 49.273 24.2197 49.294 24.1917 49.3127C24.0055 49.4387 23.8533 49.6086 23.7483 49.8073C23.6851 49.9673 23.6702 50.1423 23.7055 50.3107C23.7407 50.4791 23.8246 50.6335 23.9467 50.7547C24.0384 50.8351 24.1461 50.8952 24.2627 50.931C24.3794 50.9668 24.5023 50.9775 24.6233 50.9623C24.8042 50.9031 24.9713 50.8078 25.1145 50.6823C25.2576 50.5568 25.3739 50.4036 25.4563 50.232C25.461 50.225 25.5053 50.1923 25.5287 50.218C25.679 50.4352 25.8948 50.5988 26.1447 50.6847C26.2724 50.7291 26.4097 50.7385 26.5422 50.7118C26.6748 50.6851 26.7977 50.6234 26.8983 50.533C27.0354 50.4254 27.1345 50.2768 27.1811 50.1089C27.2277 49.9409 27.2194 49.7625 27.1573 49.5997C27.0446 49.3958 26.8835 49.2228 26.6883 49.0957C26.658 49.0723 26.6813 49.014 26.742 48.9673C27.6872 48.2073 28.8151 47.7085 30.0133 47.5207C30.8313 47.4122 31.6631 47.5469 32.405 47.908C32.6948 48.078 32.9595 48.2877 33.1913 48.531C33.2217 48.5473 33.308 48.5777 33.3383 48.5497C33.5141 48.3881 33.6207 48.165 33.6359 47.9267C33.6511 47.6885 33.5738 47.4536 33.42 47.271C33.2876 47.1113 33.1241 46.9803 32.9393 46.886C32.9317 46.8755 32.9261 46.8636 32.923 46.851C33.0674 46.4861 33.3106 46.1685 33.6253 45.934C33.8407 45.7959 34.0718 45.6838 34.3137 45.6003C34.365 45.5863 34.3557 45.5537 34.33 45.4907C34.0313 44.807 32.8483 44.7813 32.2907 45.1407C31.95 45.378 31.6728 45.6953 31.4833 46.0647C31.4717 46.088 31.4553 46.158 31.425 46.137L30.928 45.9877C30.9187 45.9877 30.9187 45.9317 30.9233 45.9223C31.0881 45.6022 31.3175 45.3197 31.597 45.0928C31.8765 44.8658 32.2001 44.6994 32.5473 44.604C32.5823 44.59 32.5707 44.5573 32.5637 44.5387C32.307 43.9133 31.0213 43.967 30.3937 44.366C29.8104 44.7528 29.3984 45.3495 29.2433 46.032C29.2363 46.0787 29.2573 46.1183 29.227 46.1253C29.0526 46.1851 28.8729 46.2281 28.6903 46.2537C28.6767 46.2525 28.6639 46.2465 28.6545 46.2366C28.645 46.2267 28.6395 46.2137 28.639 46.2C28.593 45.8862 28.6477 45.566 28.7953 45.2853C29.0047 44.9364 29.2589 44.6163 29.5513 44.3333C29.561 44.3235 29.5685 44.3117 29.5735 44.2988C29.5784 44.2859 29.5806 44.2721 29.5799 44.2583C29.5793 44.2445 29.5758 44.231 29.5696 44.2186C29.5635 44.2062 29.5549 44.1952 29.5443 44.1863C29.3774 44.0866 29.188 44.0304 28.9937 44.023V44.0253ZM21.9797 47.0493V55.0223C21.751 54.9477 21.4803 54.8497 21.1817 54.7493C20.7663 54.6093 20.3113 54.397 19.7887 54.173C18.2076 53.5115 16.6789 52.7315 15.2153 51.8397C14.2807 51.2405 13.3867 50.5803 12.539 49.8633C11.4916 48.9934 10.5047 48.0533 9.585 47.0493H21.975H21.9797Z" fill="white"/>
</svg>
