<svg width="57" height="40" viewBox="0 0 57 40" fill="none" xmlns="http://www.w3.org/2000/svg">
<path d="M28.5 0.978638C12.687 0.978638 0.5 9.02864 0.5 20C0.5 30.9713 12.6893 39.0213 28.5 39.0213C44.3107 39.0213 56.5 30.9713 56.5 20C56.5 9.02864 44.313 0.978638 28.5 0.978638V0.978638ZM45.6127 9.9363C45.6127 12.4563 41.5877 14.4 35.1407 15.177C34.534 9.15697 32.7957 5.19264 30.5603 3.7133C37.439 4.14264 45.6103 6.5763 45.6103 9.9363H45.6127ZM28.5 30.269C26.26 30.269 24.426 26.769 24.2813 20.028C25.6277 20.1376 27.0347 20.196 28.5 20.196C29.9653 20.196 31.37 20.1376 32.7163 20.028C32.574 26.7713 30.74 30.269 28.5 30.269ZM28.5 15.5503C27.1233 15.5503 25.805 15.506 24.5567 15.4243C25.1657 11.3923 26.7033 8.0743 28.5 8.0743C30.2967 8.0743 31.832 11.3923 32.441 15.4243C31.1927 15.5036 29.8767 15.5503 28.5 15.5503ZM26.442 3.70864C24.2113 5.18564 22.4613 9.1523 21.8593 15.177C15.4123 14.4 11.385 12.4563 11.385 9.9363C11.385 6.5763 19.561 4.1263 26.442 3.70864V3.70864ZM5.253 19.2533C5.24711 16.5925 6.10523 14.0018 7.69833 11.8706C8.32833 15.4803 13.583 18.593 21.633 19.734V20C21.633 28.8013 23.684 34.4736 26.5027 36.2633C14.5863 35.5143 5.253 28.1433 5.253 19.2533V19.2533ZM30.5067 36.2633C33.323 34.4736 35.3763 28.8013 35.3763 20V19.7316C43.4193 18.593 48.6857 15.471 49.311 11.8683C50.9062 13.9994 51.7652 16.5913 51.7587 19.2533C51.7493 28.1433 42.4067 35.5143 30.5043 36.2633H30.5067Z" fill="white"/>
</svg>
