<svg width="24" height="24" viewBox="0 0 24 24" fill="none" xmlns="http://www.w3.org/2000/svg">
<path d="M0.795179 1.5937C0.795179 1.38153 0.879465 1.17804 1.02949 1.02802C1.17952 0.877986 1.38301 0.793701 1.59518 0.793701H2.29598C3.45918 0.793701 4.12798 1.5505 4.51518 2.3057C4.77918 2.8225 4.96958 3.4529 5.12798 4.0001H21.6C21.8472 4.00017 22.0911 4.05754 22.3124 4.16769C22.5337 4.27784 22.7265 4.43779 22.8756 4.63497C23.0248 4.83216 23.1262 5.06122 23.1719 5.30418C23.2176 5.54714 23.2064 5.79739 23.1392 6.0353L20.7456 14.4753C20.5552 15.1449 20.1516 15.7342 19.5961 16.1537C19.0405 16.5733 18.3633 16.8002 17.6672 16.8001H9.54078C8.83882 16.8003 8.15626 16.5698 7.59825 16.1439C7.04024 15.718 6.63775 15.1205 6.45278 14.4433L5.42558 10.6753C5.41969 10.6584 5.41435 10.6413 5.40958 10.6241L3.75998 5.0289L3.59998 4.4897C3.43998 3.9361 3.29918 3.4465 3.08798 3.0353C2.83358 2.5393 2.59998 2.3953 2.29438 2.3953H1.59358C1.38141 2.3953 1.17792 2.31102 1.02789 2.16099C0.877864 2.01096 0.793579 1.80747 0.793579 1.5953L0.795179 1.5937ZM6.95198 10.1921L7.99678 14.0257C8.08941 14.3641 8.29072 14.6627 8.56971 14.8755C8.8487 15.0883 9.1899 15.2035 9.54078 15.2033H17.6688C18.0167 15.2029 18.355 15.0892 18.6325 14.8793C18.9099 14.6694 19.1114 14.3748 19.2064 14.0401L21.6 5.6001H5.59998L6.95198 10.1905V10.1921ZM12 20.7985C12 21.435 11.7471 22.0455 11.297 22.4956C10.8469 22.9456 10.2365 23.1985 9.59998 23.1985C8.96346 23.1985 8.35301 22.9456 7.90292 22.4956C7.45284 22.0455 7.19998 21.435 7.19998 20.7985C7.19998 20.162 7.45284 19.5515 7.90292 19.1014C8.35301 18.6514 8.96346 18.3985 9.59998 18.3985C10.2365 18.3985 10.8469 18.6514 11.297 19.1014C11.7471 19.5515 12 20.162 12 20.7985ZM10.4 20.7985C10.4 20.5863 10.3157 20.3828 10.1657 20.2328C10.0156 20.0828 9.81215 19.9985 9.59998 19.9985C9.38781 19.9985 9.18432 20.0828 9.03429 20.2328C8.88426 20.3828 8.79998 20.5863 8.79998 20.7985C8.79998 21.0107 8.88426 21.2142 9.03429 21.3642C9.18432 21.5142 9.38781 21.5985 9.59998 21.5985C9.81215 21.5985 10.0156 21.5142 10.1657 21.3642C10.3157 21.2142 10.4 21.0107 10.4 20.7985ZM20 20.7985C20 21.435 19.7471 22.0455 19.297 22.4956C18.8469 22.9456 18.2365 23.1985 17.6 23.1985C16.9635 23.1985 16.353 22.9456 15.9029 22.4956C15.4528 22.0455 15.2 21.435 15.2 20.7985C15.2 20.162 15.4528 19.5515 15.9029 19.1014C16.353 18.6514 16.9635 18.3985 17.6 18.3985C18.2365 18.3985 18.8469 18.6514 19.297 19.1014C19.7471 19.5515 20 20.162 20 20.7985ZM18.4 20.7985C18.4 20.5863 18.3157 20.3828 18.1657 20.2328C18.0156 20.0828 17.8122 19.9985 17.6 19.9985C17.3878 19.9985 17.1843 20.0828 17.0343 20.2328C16.8843 20.3828 16.8 20.5863 16.8 20.7985C16.8 21.0107 16.8843 21.2142 17.0343 21.3642C17.1843 21.5142 17.3878 21.5985 17.6 21.5985C17.8122 21.5985 18.0156 21.5142 18.1657 21.3642C18.3157 21.2142 18.4 21.0107 18.4 20.7985Z" fill="white"/>
</svg>
