<svg width="108" height="108" viewBox="0 0 108 108" fill="none" xmlns="http://www.w3.org/2000/svg">
<path d="M42.75 74.25L74.25 54L42.75 33.75V74.25ZM54 99C47.775 99 41.925 97.818 36.45 95.454C30.975 93.093 26.2125 89.8875 22.1625 85.8375C18.1125 81.7875 14.907 77.025 12.546 71.55C10.182 66.075 9 60.225 9 54C9 47.775 10.182 41.925 12.546 36.45C14.907 30.975 18.1125 26.2125 22.1625 22.1625C26.2125 18.1125 30.975 14.9055 36.45 12.5415C41.925 10.1805 47.775 9 54 9C60.225 9 66.075 10.1805 71.55 12.5415C77.025 14.9055 81.7875 18.1125 85.8375 22.1625C89.8875 26.2125 93.093 30.975 95.454 36.45C97.818 41.925 99 47.775 99 54C99 60.225 97.818 66.075 95.454 71.55C93.093 77.025 89.8875 81.7875 85.8375 85.8375C81.7875 89.8875 77.025 93.093 71.55 95.454C66.075 97.818 60.225 99 54 99ZM54 90C64.05 90 72.5625 86.5125 79.5375 79.5375C86.5125 72.5625 90 64.05 90 54C90 43.95 86.5125 35.4375 79.5375 28.4625C72.5625 21.4875 64.05 18 54 18C43.95 18 35.4375 21.4875 28.4625 28.4625C21.4875 35.4375 18 43.95 18 54C18 64.05 21.4875 72.5625 28.4625 79.5375C35.4375 86.5125 43.95 90 54 90Z" fill="white"/>
</svg>
