<svg width="56" height="56" viewBox="0 0 56 56" fill="none" xmlns="http://www.w3.org/2000/svg">
<path d="M28.6832 8.4336C28.4738 8.43322 28.267 8.47982 28.078 8.56995C27.8891 8.66008 27.7227 8.79145 27.5912 8.9544L27.342 9.1392C22.512 7.644 17.0016 8.7416 13.1656 12.4376C11.5592 13.9619 10.3642 15.8675 9.69158 17.9773C9.01898 20.0872 8.8906 22.3328 9.3184 24.5056C9.27085 24.5476 9.22418 24.5905 9.1784 24.6344L6.9972 26.7344C6.57527 27.1347 6.23925 27.6166 6.00963 28.151C5.78001 28.6853 5.66159 29.2608 5.66159 29.8424C5.66159 30.424 5.78001 30.9995 6.00963 31.5338C6.23925 32.0681 6.57527 32.5501 6.9972 32.9504C8.1116 34.0256 9.6572 34.4288 11.0936 34.16C11.27 34.9692 11.6816 35.7392 12.334 36.3664C13.1936 37.1952 14.3108 37.6236 15.4364 37.6544C15.4672 38.738 15.9124 39.8132 16.772 40.642C17.6316 41.4708 18.7516 41.902 19.8772 41.93C19.9052 43.0136 20.3532 44.0916 21.2128 44.9204C22.0357 45.7014 23.1138 46.1578 24.2473 46.2052C25.3809 46.2525 26.4932 45.8876 27.3784 45.178L28.602 46.354C30.394 48.0816 33.3004 48.0816 35.0924 46.354C35.9492 45.5308 36.3944 44.4612 36.4336 43.3804C37.5845 43.3507 38.6829 42.8924 39.5136 42.0952C40.3704 41.2692 40.8156 40.1996 40.8492 39.1188C41.9872 39.0789 43.0706 38.6214 43.8928 37.8336C44.5732 37.1812 44.9932 36.372 45.1556 35.5264C45.8763 35.6528 46.6166 35.6081 47.317 35.3961C48.0173 35.1841 48.658 34.8105 49.1876 34.3056C49.61 33.9053 49.9464 33.4231 50.1762 32.8885C50.4061 32.354 50.5247 31.7781 50.5247 31.1962C50.5247 30.6143 50.4061 30.0384 50.1762 29.5038C49.9464 28.9692 49.61 28.4871 49.1876 28.0868L47.1716 26.1464L47.5832 24.6064C48.4158 21.458 47.9942 18.1094 46.4072 15.2656C44.0664 11.0488 39.5248 8.4448 34.6136 8.4448H31.1696C31.0213 8.43745 30.8729 8.43371 30.7244 8.4336H28.6832ZM35.5516 18.8384L42.2856 25.326L42.294 25.3316L47.1688 30.03C47.3272 30.1802 47.4533 30.361 47.5394 30.5615C47.6256 30.762 47.6701 30.978 47.6701 31.1962C47.6701 31.4144 47.6256 31.6304 47.5394 31.8309C47.4533 32.0314 47.3272 32.2122 47.1688 32.3624C46.8417 32.6722 46.4083 32.8448 45.9578 32.8448C45.5073 32.8448 45.0739 32.6722 44.7468 32.3624L41.048 28.8008C40.7769 28.5407 40.4157 28.3954 40.04 28.3954C39.6643 28.3954 39.3031 28.5407 39.032 28.8008L38.9928 28.8344C38.8608 28.9595 38.7557 29.1101 38.6838 29.2772C38.612 29.4442 38.5749 29.6242 38.5749 29.806C38.5749 29.9878 38.612 30.1678 38.6838 30.3348C38.7557 30.5019 38.8608 30.6525 38.9928 30.7776L41.8768 33.5552C42.5488 34.1992 42.5488 35.2464 41.8768 35.8932C41.5794 36.175 41.1932 36.3445 40.7845 36.3726C40.3757 36.4007 39.97 36.2856 39.6368 36.0472C39.3588 35.8463 39.0191 35.7492 38.6769 35.7727C38.3347 35.7962 38.0115 35.9389 37.7636 36.176C37.5213 36.4077 37.375 36.722 37.3537 37.0566C37.3325 37.3912 37.4378 37.7215 37.6488 37.982C37.9002 38.2968 38.0241 38.6946 37.9961 39.0965C37.9681 39.4983 37.7902 39.8751 37.4976 40.152C37.196 40.438 36.8031 40.6084 36.3881 40.6329C35.9732 40.6575 35.5629 40.5348 35.2296 40.2864C34.9529 40.0789 34.6119 39.9757 34.2666 39.9952C33.9213 40.0147 33.594 40.1555 33.3424 40.3928C33.0969 40.6241 32.9481 40.9398 32.9257 41.2763C32.9034 41.6129 33.0092 41.9455 33.222 42.2072C33.4792 42.5262 33.6068 42.9305 33.5793 43.3394C33.5518 43.7483 33.3713 44.1319 33.0736 44.4136C32.7422 44.7281 32.3027 44.9035 31.8458 44.9035C31.3889 44.9035 30.9494 44.7281 30.618 44.4136L29.4056 43.246L29.848 42.8204C30.2704 42.4201 30.6068 41.9379 30.8366 41.4033C31.0665 40.8687 31.1851 40.2929 31.1851 39.711C31.1851 39.1291 31.0665 38.5532 30.8366 38.0186C30.6068 37.4841 30.2704 37.0019 29.848 36.6016C29.0112 35.7996 27.9044 35.3401 26.7456 35.3136C26.7116 34.1798 26.2317 33.1052 25.41 32.3232C24.5721 31.5216 23.4642 31.063 22.3048 31.038C22.2708 29.9042 21.7909 28.8296 20.9692 28.0476C20.4313 27.5356 19.7792 27.1591 19.0668 26.9492C18.3545 26.7394 17.6024 26.7022 16.8728 26.8408C16.6882 25.9982 16.2563 25.23 15.6324 24.6344C15.1541 24.178 14.5842 23.8286 13.9604 23.6094C13.3367 23.3902 12.6735 23.3063 12.0148 23.3632C11.7942 21.7224 11.966 20.0528 12.516 18.4913C13.066 16.9298 13.9786 15.5211 15.1788 14.3808C16.3916 13.2221 17.8457 12.3461 19.4369 11.8156C21.0281 11.285 22.7169 11.113 24.3824 11.312L20.3084 14.308C19.7871 14.6868 19.3481 15.1672 19.0176 15.7204C18.6872 16.2736 18.4724 16.888 18.386 17.5265C18.2997 18.165 18.3436 18.8144 18.5152 19.4355C18.6868 20.0565 18.9825 20.6364 19.3844 21.14C20.1972 22.1592 21.3718 22.8258 22.6636 23.001C23.9554 23.1762 25.265 22.8466 26.32 22.0808L30.7328 18.8412H35.5488L35.5516 18.8384ZM21.966 16.562L29.2236 11.2336H30.7244C30.8617 11.2329 30.999 11.2366 31.136 11.2448H34.6136C38.5448 11.2448 42.1316 13.3308 43.96 16.6264C45.1976 18.8552 45.5224 21.4452 44.8756 23.8896L44.8672 23.9176L37.1392 16.45C36.8773 16.1873 36.5218 16.0392 36.1508 16.0384H30.2708C29.9736 16.039 29.6843 16.1341 29.4448 16.31L24.6624 19.8212C24.1926 20.1576 23.6121 20.3017 23.0396 20.2242C22.467 20.1466 21.9457 19.8532 21.5824 19.404C21.4131 19.1954 21.2882 18.9544 21.2156 18.6957C21.1429 18.4371 21.124 18.1663 21.1599 17.9001C21.1958 17.6338 21.2859 17.3778 21.4245 17.1477C21.5632 16.9175 21.7474 16.7182 21.966 16.562ZM23.2036 40.67L23.2316 40.642L25.41 38.542L25.4352 38.5196C25.7641 38.2205 26.194 38.0569 26.6385 38.0616C27.0831 38.0662 27.5094 38.2389 27.832 38.5448C27.9904 38.695 28.1165 38.8758 28.2026 39.0763C28.2888 39.2768 28.3333 39.4928 28.3333 39.711C28.3333 39.9292 28.2888 40.1452 28.2026 40.3457C28.1165 40.5462 27.9904 40.727 27.832 40.8772L25.6508 42.9772C25.3237 43.287 24.8903 43.4596 24.4398 43.4596C23.9893 43.4596 23.5559 43.287 23.2288 42.9772C23.0725 42.8293 22.9475 42.6514 22.8613 42.4543C22.775 42.2572 22.7292 42.0447 22.7266 41.8295C22.724 41.6143 22.7646 41.4008 22.8461 41.2017C22.9275 41.0025 23.0482 40.8217 23.2008 40.67H23.2036ZM23.4192 36.5764L23.3912 36.6016L21.2128 38.7016L21.1848 38.7268C20.8557 39.0247 20.4262 39.1873 19.9823 39.1821C19.5384 39.1769 19.1129 39.0043 18.7908 38.6988C18.6342 38.5502 18.5092 38.3716 18.4231 38.1736C18.3371 37.9757 18.2918 37.7624 18.2899 37.5466C18.2881 37.3307 18.3298 37.1167 18.4125 36.9173C18.4952 36.7179 18.6172 36.5372 18.7712 36.386L18.7908 36.3664L20.9692 34.2664L20.9888 34.2468C21.3173 33.9453 21.748 33.7797 22.1939 33.7834C22.6397 33.787 23.0676 33.9596 23.3912 34.2664C23.5479 34.4144 23.6732 34.5924 23.7598 34.7898C23.8463 34.9872 23.8922 35.1999 23.8948 35.4155C23.8974 35.631 23.8567 35.8448 23.775 36.0443C23.6933 36.2437 23.5723 36.4247 23.4192 36.5764ZM18.9532 32.3232L16.772 34.4232L16.7524 34.4428C16.4239 34.7442 15.9932 34.9099 15.5473 34.9062C15.1015 34.9026 14.6736 34.73 14.35 34.4232C14.1916 34.273 14.0655 34.0922 13.9794 33.8917C13.8932 33.6912 13.8487 33.4752 13.8487 33.257C13.8487 33.0388 13.8932 32.8228 13.9794 32.6223C14.0655 32.4218 14.1916 32.241 14.35 32.0908L16.5284 29.9908C16.8557 29.6802 17.2896 29.5071 17.7408 29.5071C18.192 29.5071 18.6259 29.6802 18.9532 29.9908C19.1102 30.1394 19.2356 30.3182 19.3219 30.5164C19.4083 30.7146 19.4537 30.9282 19.4555 31.1444C19.4573 31.3606 19.4155 31.575 19.3326 31.7746C19.2496 31.9743 19.1273 32.1551 18.9728 32.3064L18.9532 32.3232ZM13.6164 28.91L11.438 31.01C11.1111 31.3212 10.677 31.4948 10.2256 31.4948C9.77422 31.4948 9.34013 31.3212 9.0132 31.01C8.85441 30.8598 8.72792 30.6788 8.64148 30.478C8.55503 30.2773 8.51045 30.061 8.51045 29.8424C8.51045 29.6238 8.55503 29.4075 8.64148 29.2068C8.72792 29.006 8.85441 28.825 9.0132 28.6748L11.1944 26.5748C11.5215 26.265 11.9549 26.0924 12.4054 26.0924C12.8559 26.0924 13.2893 26.265 13.6164 26.5748C13.7752 26.725 13.9017 26.906 13.9881 27.1068C14.0746 27.3075 14.1192 27.5238 14.1192 27.7424C14.1192 27.961 14.0746 28.1773 13.9881 28.378C13.9017 28.5788 13.7752 28.7598 13.6164 28.91Z" fill="#151515"/>
</svg>
