<svg width="56" height="56" viewBox="0 0 56 56" fill="none" xmlns="http://www.w3.org/2000/svg">
<path d="M18.284 11.2224C19.5312 9.04987 21.4708 7.3582 23.7926 6.41778C26.1145 5.47737 28.6846 5.34251 31.0922 6.03476C33.4997 6.72702 35.6056 8.20641 37.0734 10.2365C38.5411 12.2665 39.2859 14.7301 39.1887 17.2333C39.0915 19.7365 38.1579 22.1348 36.5371 24.0449C34.9164 25.955 32.702 27.2667 30.2481 27.7701C27.7941 28.2736 25.2422 27.9398 23.0002 26.8222C20.7583 25.7045 18.9558 23.8675 17.8808 21.6048C17.1626 22.1302 16.2955 22.4127 15.4056 22.4112H14.0056V23.1252C14.0056 23.6572 14.2072 24.1416 14.5376 24.5084C14.8199 24.1892 15.1928 23.9636 15.6066 23.8617C16.0203 23.7597 16.4553 23.7862 16.8536 23.9376C17.2519 24.089 17.5947 24.3582 17.8362 24.7093C18.0777 25.0603 18.2066 25.4767 18.2056 25.9028C18.2054 26.1954 18.144 26.4848 18.0254 26.7524C17.9068 27.0199 17.7336 27.2597 17.5169 27.4564C17.3002 27.653 17.0448 27.8022 16.767 27.8944C16.4892 27.9866 16.1953 28.0197 15.904 27.9916C14.6429 27.9473 13.4483 27.4152 12.5718 26.5074C11.6954 25.5996 11.2055 24.387 11.2056 23.1252V12.6196C11.2056 12.2483 11.3531 11.8922 11.6156 11.6296C11.8782 11.3671 12.2343 11.2196 12.6056 11.2196H18.2056L18.284 11.2224ZM19.6056 17.1332C19.6928 19.3304 20.6382 21.4058 22.2386 22.9138C23.8391 24.4217 25.9671 25.242 28.1656 25.1983C30.3641 25.1547 32.4579 24.2507 33.9973 22.6805C35.5367 21.1102 36.399 18.999 36.399 16.8C36.399 14.601 35.5367 12.4898 33.9973 10.9195C32.4579 9.34926 30.3641 8.44527 28.1656 8.40165C25.9671 8.35803 23.8391 9.17826 22.2386 10.6862C20.6382 12.1941 19.6928 14.2696 19.6056 16.4668V17.1332ZM16.8056 16.4136V14.0196H14.0056V19.6112H15.4056C15.7769 19.6112 16.133 19.4637 16.3955 19.2011C16.6581 18.9386 16.8056 18.5825 16.8056 18.2112V17.1864C16.7969 16.9289 16.7969 16.6711 16.8056 16.4136ZM8.39999 36.4C8.39999 33.2836 10.9284 30.8 14.0252 30.8H42C43.4852 30.8 44.9096 31.39 45.9598 32.4402C47.01 33.4904 47.6 34.9148 47.6 36.4C47.6 41.1348 45.2676 44.7048 41.622 47.0316C38.0324 49.3192 33.194 50.4 28 50.4C22.806 50.4 17.9676 49.3192 14.378 47.0316C10.7324 44.7076 8.39999 41.132 8.39999 36.4ZM14.0252 33.6C12.4544 33.6 11.2 34.8516 11.2 36.4C11.2 40.0652 12.9416 42.7952 15.8844 44.6684C18.8804 46.5808 23.142 47.6 28 47.6C32.858 47.6 37.1196 46.5808 40.1156 44.6684C43.0556 42.7924 44.8 40.068 44.8 36.4C44.8 35.6574 44.505 34.9452 43.9799 34.4201C43.4548 33.895 42.7426 33.6 42 33.6H14.0252Z" fill="#151515"/>
</svg>
