<svg width="56" height="56" viewBox="0 0 56 56" fill="none" xmlns="http://www.w3.org/2000/svg">
<path d="M16.8 5.59998C15.3148 5.59998 13.8904 6.18997 12.8402 7.24018C11.79 8.29038 11.2 9.71476 11.2 11.2V30.8H14V11.2C14 10.4574 14.295 9.74518 14.8201 9.22008C15.3452 8.69497 16.0574 8.39998 16.8 8.39998H36.4C37.1426 8.39998 37.8548 8.69497 38.3799 9.22008C38.905 9.74518 39.2 10.4574 39.2 11.2V42H30.8V44.8H42C44.2278 44.8 46.3644 43.915 47.9397 42.3397C49.515 40.7644 50.4 38.6278 50.4 36.4V30.8H42V11.2C42 9.71476 41.41 8.29038 40.3598 7.24018C39.3096 6.18997 37.8852 5.59998 36.4 5.59998H16.8ZM47.6 36.4C47.6 37.8852 47.01 39.3096 45.9598 40.3598C44.9096 41.41 43.4852 42 42 42V33.6H47.6V36.4ZM21 14C20.6287 14 20.2726 14.1475 20.01 14.41C19.7475 14.6726 19.6 15.0287 19.6 15.4C19.6 15.7713 19.7475 16.1274 20.01 16.3899C20.2726 16.6525 20.6287 16.8 21 16.8H32.2C32.5713 16.8 32.9274 16.6525 33.1899 16.3899C33.4525 16.1274 33.6 15.7713 33.6 15.4C33.6 15.0287 33.4525 14.6726 33.1899 14.41C32.9274 14.1475 32.5713 14 32.2 14H21ZM19.6 21C19.6 20.6287 19.7475 20.2726 20.01 20.01C20.2726 19.7475 20.6287 19.6 21 19.6H32.2C32.5713 19.6 32.9274 19.7475 33.1899 20.01C33.4525 20.2726 33.6 20.6287 33.6 21C33.6 21.3713 33.4525 21.7274 33.1899 21.9899C32.9274 22.2525 32.5713 22.4 32.2 22.4H21C20.6287 22.4 20.2726 22.2525 20.01 21.9899C19.7475 21.7274 19.6 21.3713 19.6 21ZM23.8 33.6C24.9139 33.6 25.9822 34.0425 26.7698 34.8301C27.5575 35.6178 28 36.6861 28 37.8V46.2C28 47.3139 27.5575 48.3822 26.7698 49.1698C25.9822 49.9575 24.9139 50.4 23.8 50.4H6.99999C5.88608 50.4 4.81779 49.9575 4.03014 49.1698C3.24249 48.3822 2.79999 47.3139 2.79999 46.2V37.8C2.79999 36.6861 3.24249 35.6178 4.03014 34.8301C4.81779 34.0425 5.88608 33.6 6.99999 33.6H23.8ZM25.2 46.2V43.4C24.0861 43.4 23.0178 43.8425 22.2301 44.6301C21.4425 45.4178 21 46.4861 21 47.6H23.8C23.8 47.2287 23.9475 46.8726 24.21 46.61C24.4726 46.3475 24.8287 46.2 25.2 46.2ZM25.2 37.8C24.8287 37.8 24.4726 37.6525 24.21 37.3899C23.9475 37.1274 23.8 36.7713 23.8 36.4H21C21 37.5139 21.4425 38.5822 22.2301 39.3698C23.0178 40.1575 24.0861 40.6 25.2 40.6V37.8ZM6.99999 36.4C6.99999 36.7713 6.85249 37.1274 6.58994 37.3899C6.32739 37.6525 5.97129 37.8 5.59999 37.8V40.6C6.7139 40.6 7.78218 40.1575 8.56984 39.3698C9.35749 38.5822 9.79999 37.5139 9.79999 36.4H6.99999ZM5.59999 46.2C5.97129 46.2 6.32739 46.3475 6.58994 46.61C6.85249 46.8726 6.99999 47.2287 6.99999 47.6H9.79999C9.79999 46.4861 9.35749 45.4178 8.56984 44.6301C7.78218 43.8425 6.7139 43.4 5.59999 43.4V46.2ZM15.4 37.8C14.2861 37.8 13.2178 38.2425 12.4301 39.0301C11.6425 39.8178 11.2 40.8861 11.2 42C11.2 43.1139 11.6425 44.1822 12.4301 44.9698C13.2178 45.7575 14.2861 46.2 15.4 46.2C16.5139 46.2 17.5822 45.7575 18.3698 44.9698C19.1575 44.1822 19.6 43.1139 19.6 42C19.6 40.8861 19.1575 39.8178 18.3698 39.0301C17.5822 38.2425 16.5139 37.8 15.4 37.8Z" fill="#151515"/>
</svg>
